<svg version="1.1" id="Layer_1" xmlns="http://www.w3.org/2000/svg" xmlns:xlink="http://www.w3.org/1999/xlink" x="0px" y="0px"
	 width="100%" viewBox="0 0 306 358" enable-background="new 0 0 306 358" xml:space="preserve">
<!-- <path fill="#FDFEFE" opacity="1.000000" stroke="none" 
	d="
M307.000000,134.000000 
	C307.000000,209.305176 307.000000,284.110352 307.000000,358.957764 
	C205.066559,358.957764 103.133087,358.957764 1.099809,358.957764 
	C1.099809,239.778183 1.099809,120.556259 1.099809,1.167164 
	C102.999779,1.167164 204.999863,1.167164 307.000000,1.167164 
	C307.000000,45.200226 307.000000,89.350113 307.000000,134.000000 
M64.194672,122.855003 
	C70.814240,128.235733 77.433800,133.616455 84.340340,139.540222 
	C85.489227,140.396362 86.638115,141.252487 88.133644,142.680588 
	C90.054527,144.186005 91.975403,145.691422 94.216316,147.782898 
	C107.396324,158.638779 120.414810,169.699448 133.818497,180.271744 
	C141.537338,186.360092 150.718948,188.220093 160.549240,187.410934 
	C173.505859,186.344437 182.918442,179.272598 191.852432,169.937210 
	C199.984680,163.315262 208.116943,156.693298 216.850937,149.821411 
	C223.558334,144.211563 230.265717,138.601700 237.597946,132.796448 
	C239.066299,131.531830 240.534653,130.267227 242.636948,128.775024 
	C247.232269,124.898895 251.827576,121.022758 256.894470,116.705498 
	C259.861084,114.247253 262.827667,111.789017 266.364746,109.165520 
	C270.424591,105.884232 274.484436,102.602943 279.131348,98.847183 
	C275.257202,95.812332 272.165863,93.390709 268.786957,90.356514 
	C268.304901,89.898773 267.854156,89.401772 267.336304,88.988899 
	C239.257355,66.600945 211.166443,44.227947 183.091888,21.834484 
	C172.171921,13.124271 159.843262,10.979075 146.432999,13.907525 
	C134.954819,16.414057 127.349167,24.904249 118.411942,32.063747 
	C118.154175,32.200958 117.980026,32.408401 117.297653,32.924648 
	C116.516869,33.611340 115.736076,34.298031 114.340874,35.247166 
	C101.837723,45.110359 89.275742,54.900131 76.849289,64.859032 
	C66.123650,73.454865 55.552197,82.243103 44.296928,91.218407 
	C41.702618,93.430794 39.108311,95.643181 36.031052,98.303223 
	C36.673660,99.374733 37.084698,100.729454 37.994907,101.473679 
	C46.559883,108.476715 55.210106,115.375504 64.194672,122.855003 
M199.414703,184.453888 
	C189.970230,192.102936 181.395447,200.965988 168.982590,205.713852 
	C152.175232,209.927399 137.887360,205.159882 125.361664,193.689865 
	C121.820412,190.447067 117.893471,187.625458 113.797096,184.075211 
	C108.542831,179.996124 103.288567,175.917038 97.688301,171.266449 
	C95.459145,169.601654 93.149048,168.034012 91.014587,166.255569 
	C80.723396,157.680893 70.479523,149.049423 59.955864,139.887268 
	C48.924862,130.824982 37.893860,121.762680 26.463396,112.372215 
	C20.289951,124.097191 20.727316,136.051178 21.055767,148.934204 
	C21.091446,154.291122 21.127125,159.648041 21.028303,165.931503 
	C21.075602,171.623032 21.122902,177.314560 21.032473,183.933426 
	C21.071163,191.624847 21.109854,199.316269 21.015419,207.935577 
	C21.065325,216.625397 21.115229,225.315201 21.023815,234.932632 
	C21.067326,243.957092 21.110836,252.981552 21.016638,262.931793 
	C21.055147,268.289185 21.093657,273.646545 20.992775,279.928345 
	C21.339622,285.619415 21.686470,291.310516 21.972210,297.689056 
	C22.085461,298.131836 22.198711,298.574646 22.281492,299.757050 
	C28.791399,328.137512 56.297871,342.959442 84.971184,338.334106 
	C84.971184,331.918518 84.971184,325.460175 85.115555,318.102234 
	C85.066895,315.068604 85.018227,312.035004 85.112770,308.080872 
	C85.069397,303.720978 85.026024,299.361115 85.122795,294.072998 
	C85.068794,288.049469 85.014793,282.025970 85.098991,275.073212 
	C85.046921,266.049835 84.994850,257.026459 85.072350,247.327454 
	C85.160782,246.444336 85.249214,245.561218 85.376205,244.293030 
	C89.374153,247.789886 92.999161,250.960541 96.999947,254.709747 
	C102.296059,259.606567 107.592163,264.503387 113.229721,269.943237 
	C118.624306,274.899933 123.950157,279.934021 129.426773,284.798370 
	C144.081039,297.814392 166.571945,298.829346 181.904922,286.649780 
	C189.038773,280.983063 195.331360,274.257324 202.628998,267.767914 
	C207.084549,263.491211 211.540085,259.214478 216.601349,254.672241 
	C220.606903,251.349396 224.612473,248.026566 228.354874,245.666077 
	C228.488327,250.440201 228.621780,255.214310 228.419800,260.871704 
	C228.509186,265.259949 228.598572,269.648193 228.393738,274.917572 
	C228.494873,279.943115 228.596008,284.968658 228.390045,290.889984 
	C228.498215,296.607727 228.606369,302.325439 228.418152,308.924438 
	C228.418152,318.858887 228.418152,328.793335 228.418152,338.919617 
	C234.608170,338.919617 240.285797,339.300140 245.895554,338.844696 
	C259.898926,337.707764 271.359100,331.306305 281.285034,320.535217 
	C283.255707,317.470581 285.226349,314.405975 287.737671,310.850891 
	C289.410126,304.569305 291.082550,298.287720 292.957520,291.086945 
	C292.925812,285.058899 292.894135,279.030823 293.010620,272.075378 
	C292.951080,264.052429 292.891541,256.029480 292.983307,247.079559 
	C292.932129,240.387314 292.880981,233.695053 292.977325,226.074722 
	C292.919617,218.385315 292.861908,210.695908 292.955933,202.079559 
	C292.899048,192.724045 292.842163,183.368530 292.941772,173.084427 
	C292.898651,165.727036 292.855560,158.369629 292.958588,150.082230 
	C292.934662,137.472046 294.247162,124.659264 287.428589,112.307243 
	C278.000214,120.155045 268.997864,127.648270 259.389587,135.388992 
	C251.231644,142.149872 243.073715,148.910767 234.238937,155.869980 
	C227.763428,161.187500 221.287918,166.505020 214.220108,172.128235 
	C209.486450,176.158096 204.752777,180.187958 199.414703,184.453888 
z"/> -->
<path fill="#449DD3" opacity="1.000000" stroke="none" 
	d="
M202.005280,268.011658 
	C195.331360,274.257324 189.038773,280.983063 181.904922,286.649780 
	C166.571945,298.829346 144.081039,297.814392 129.426773,284.798370 
	C123.950157,279.934021 118.624306,274.899933 113.092110,269.171906 
	C112.970032,256.650696 112.945564,244.900467 113.045135,233.151291 
	C113.059715,231.431839 113.664764,229.717377 114.355858,227.961945 
	C118.432709,224.228943 120.853958,226.476776 124.931648,228.480606 
	C134.009109,232.941345 143.412903,237.137939 152.774033,240.745178 
	C161.471619,244.096695 172.036011,243.875793 181.628082,243.173584 
	C187.723419,242.727356 193.657898,239.865753 199.998657,242.467529 
	C199.999863,245.392868 199.810165,247.867188 200.037750,250.302536 
	C200.590286,256.215210 201.336884,262.109772 202.005280,268.011658 
z"/>
<path fill="#55B9D1" opacity="1.000000" stroke="none" 
	d="
M36.514000,97.855576 
	C39.108311,95.643181 41.702618,93.430794 44.987347,91.104950 
	C48.445045,89.971069 51.212326,88.950638 54.248810,88.230988 
	C59.767765,88.803825 65.215599,91.761414 70.307442,86.736267 
	C70.458725,88.511787 70.556885,89.663712 70.755486,91.994499 
	C73.313492,89.548637 75.122505,87.818932 76.931519,86.089218 
	C77.193451,86.314430 77.455383,86.539642 77.717323,86.764854 
	C77.210182,88.028122 76.703041,89.291389 75.689102,91.817062 
	C81.814713,92.944420 87.437622,93.801628 92.974129,95.043869 
	C99.663704,96.544823 106.321266,98.228256 112.911415,100.116364 
	C116.402405,101.116547 119.621735,103.177650 123.141251,103.938828 
	C128.289185,105.052177 133.743530,104.896423 138.788422,106.290604 
	C142.640198,107.355057 145.865326,110.657684 149.714401,111.767754 
	C156.340378,113.678696 163.292358,114.432899 169.989197,116.137451 
	C172.696075,116.826439 177.264191,118.797844 177.228287,120.080505 
	C177.113739,124.173393 179.384659,123.769279 181.841660,124.174469 
	C184.775314,124.658279 187.870560,124.979843 190.503937,126.210304 
	C192.641785,127.209229 194.788040,129.137466 195.878265,131.207718 
	C197.488846,134.266113 199.193008,135.097610 202.573807,134.404602 
	C204.910110,133.925705 207.514694,134.755585 209.806854,135.271423 
	C203.593735,139.998962 197.976318,145.211807 189.608459,145.993637 
	C185.730881,144.925720 182.294510,143.639725 178.747055,142.857300 
	C173.603317,141.722763 168.233246,139.733459 163.226456,140.333740 
	C156.919876,141.089813 152.003387,139.066513 146.795547,136.522675 
	C143.313782,134.821976 139.751038,132.939865 136.013260,132.184906 
	C128.867554,130.741623 121.565643,130.082001 114.339348,129.023468 
	C110.097458,128.402115 105.896393,127.263123 101.640739,127.036209 
	C96.534775,126.763947 91.800354,126.199730 87.397141,123.106438 
	C84.656052,121.180794 81.158432,120.332047 77.679398,118.830566 
	C76.549103,117.844185 75.755508,116.336617 74.927948,116.317726 
	C67.131516,116.139801 62.149555,110.332634 56.073914,106.884972 
	C49.768776,103.307068 44.292850,98.177803 36.514000,97.855576 
z"/>
<path fill="#54BCCD" opacity="1.000000" stroke="none" 
	d="
M209.999390,135.000610 
	C207.514694,134.755585 204.910110,133.925705 202.573807,134.404602 
	C199.193008,135.097610 197.488846,134.266113 195.878265,131.207718 
	C194.788040,129.137466 192.641785,127.209229 190.503937,126.210304 
	C187.870560,124.979843 184.775314,124.658279 181.841660,124.174469 
	C179.384659,123.769279 177.113739,124.173393 177.228287,120.080505 
	C177.264191,118.797844 172.696075,116.826439 169.989197,116.137451 
	C163.292358,114.432899 156.340378,113.678696 149.714401,111.767754 
	C145.865326,110.657684 142.640198,107.355057 138.788422,106.290604 
	C133.743530,104.896423 128.289185,105.052177 123.141251,103.938828 
	C119.621735,103.177650 116.402405,101.116547 112.911415,100.116364 
	C106.321266,98.228256 99.663704,96.544823 92.974129,95.043869 
	C87.437622,93.801628 81.814713,92.944420 75.689102,91.817062 
	C76.703041,89.291389 77.210182,88.028122 77.717323,86.764854 
	C77.455383,86.539642 77.193451,86.314430 76.931519,86.089218 
	C75.122505,87.818932 73.313492,89.548637 70.755486,91.994499 
	C70.556885,89.663712 70.458725,88.511787 70.307442,86.736267 
	C65.215599,91.761414 59.767765,88.803825 54.412064,87.936646 
	C65.204018,80.904343 76.101913,74.467148 87.000656,68.426544 
	C86.961823,71.992409 87.951302,73.586639 91.535980,72.343407 
	C99.076424,69.728249 106.381516,71.234581 113.546455,74.022987 
	C114.468277,74.381729 115.873055,74.647087 116.153427,75.327080 
	C118.663551,81.414970 124.000504,80.397751 129.004745,81.123802 
	C139.560532,82.655312 151.150696,81.572952 158.978073,91.312622 
	C159.364395,91.793327 160.083801,92.044426 160.690140,92.304382 
	C167.365723,95.166451 174.935638,96.242599 180.050217,102.249001 
	C180.634338,102.934975 182.258514,102.645493 183.320679,103.029137 
	C189.256149,105.172920 197.038681,103.226540 200.577591,110.802887 
	C200.805695,111.291206 201.960968,111.362907 202.695328,111.595695 
	C209.197739,113.657074 215.857269,115.331757 222.152191,117.900429 
	C226.354340,119.615150 230.061279,120.698105 234.525345,118.920357 
	C236.379333,118.182030 238.825150,118.929840 241.001434,119.438477 
	C241.335022,122.917625 241.669006,125.960121 242.003006,129.002609 
	C240.534653,130.267227 239.066299,131.531830 236.842087,132.897858 
	C232.359528,132.951721 228.830109,133.213608 225.334747,130.633286 
	C223.699188,129.425888 219.997971,130.429749 217.461456,131.191910 
	C214.830185,131.982529 212.475204,133.692642 209.999390,135.000610 
z"/>
<path fill="#54BFCA" opacity="1.000000" stroke="none" 
	d="
M241.001831,119.001831 
	C238.825150,118.929840 236.379333,118.182030 234.525345,118.920357 
	C230.061279,120.698105 226.354340,119.615150 222.152191,117.900429 
	C215.857269,115.331757 209.197739,113.657074 202.695328,111.595695 
	C201.960968,111.362907 200.805695,111.291206 200.577591,110.802887 
	C197.038681,103.226540 189.256149,105.172920 183.320679,103.029137 
	C182.258514,102.645493 180.634338,102.934975 180.050217,102.249001 
	C174.935638,96.242599 167.365723,95.166451 160.690140,92.304382 
	C160.083801,92.044426 159.364395,91.793327 158.978073,91.312622 
	C151.150696,81.572952 139.560532,82.655312 129.004745,81.123802 
	C124.000504,80.397751 118.663551,81.414970 116.153427,75.327080 
	C115.873055,74.647087 114.468277,74.381729 113.546455,74.022987 
	C106.381516,71.234581 99.076424,69.728249 91.535980,72.343407 
	C87.951302,73.586639 86.961823,71.992409 87.311234,68.273399 
	C97.412743,62.144726 107.204514,56.565777 116.997688,51.400253 
	C117.182823,53.157875 117.366554,54.502075 117.563034,55.939556 
	C121.151863,55.261124 124.182983,53.898544 126.934227,54.328190 
	C133.152725,55.299294 139.322388,56.866325 145.345718,58.728535 
	C152.060013,60.804371 158.726151,63.162140 165.171143,65.955750 
	C177.238785,71.186539 190.662140,72.928955 201.877991,80.356712 
	C203.317154,81.309807 205.280228,81.471825 207.035294,82.353867 
	C209.696884,85.778069 212.492706,88.721764 214.915497,91.945801 
	C219.940872,98.633156 225.958130,103.649063 234.524490,104.994263 
	C235.746658,105.186188 237.085953,105.765450 238.001785,106.580391 
	C242.120880,110.245728 246.958099,110.254059 252.022385,109.861763 
	C256.599274,109.507233 261.202576,109.494324 265.794250,109.330765 
	C262.827667,111.789017 259.861084,114.247253 256.237854,116.881790 
	C252.792938,117.340149 249.997116,117.564163 247.218781,117.923332 
	C245.134811,118.192741 243.073334,118.635986 241.001831,119.001831 
z"/>
<path fill="#44A3D1" opacity="1.000000" stroke="none" 
	d="
M199.997559,241.998779 
	C193.657898,239.865753 187.723419,242.727356 181.628082,243.173584 
	C172.036011,243.875793 161.471619,244.096695 152.774033,240.745178 
	C143.412903,237.137939 134.009109,232.941345 124.931648,228.480606 
	C120.853958,226.476776 118.432709,224.228943 114.356018,227.561935 
	C113.994858,226.133972 113.992805,225.067383 113.993240,223.532074 
	C114.044968,210.245804 114.094193,197.428238 114.143417,184.610687 
	C117.893471,187.625458 121.820412,190.447067 125.361664,193.689865 
	C137.887360,205.159882 152.175232,209.927399 169.639374,206.016388 
	C180.195801,208.212006 190.095459,210.105087 199.996460,212.442535 
	C199.999146,215.258545 200.000488,217.630188 200.001434,220.470215 
	C199.999863,227.958664 199.998703,234.978714 199.997559,241.998779 
z"/>
<path fill="#79DDD5" opacity="1.000000" stroke="none" 
	d="
M118.803787,31.932240 
	C127.349167,24.904249 134.954819,16.414057 146.432999,13.907525 
	C159.843262,10.979075 172.171921,13.124271 183.091888,21.834484 
	C211.166443,44.227947 239.257355,66.600945 267.336304,88.988899 
	C267.854156,89.401772 268.304901,89.898773 268.549255,90.677383 
	C266.214081,90.321487 264.116608,89.644714 261.816284,88.697273 
	C244.227921,78.369347 226.841156,68.314178 209.457275,58.254032 
	C199.105545,52.263424 189.140228,45.433300 178.319611,40.465034 
	C162.102112,33.018822 145.691513,34.132774 129.999084,42.596302 
	C129.155853,32.022293 122.671875,38.760326 117.246742,38.995300 
	C119.252357,36.302853 120.511963,34.611885 121.755852,32.942020 
	C121.266754,32.548912 121.047012,32.239735 120.771477,32.177483 
	C120.129868,32.032524 119.461380,32.006474 118.803787,31.932240 
z"/>
<path fill="#66CBDD" opacity="1.000000" stroke="none" 
	d="
M214.812408,171.822540 
	C221.287918,166.505020 227.763428,161.187500 234.602814,156.228226 
	C235.641632,158.037735 236.012970,160.465500 237.039871,160.784805 
	C244.835861,163.208740 252.704620,165.463379 260.663055,167.278214 
	C266.398407,168.586136 272.351013,168.917816 278.123840,170.092270 
	C283.072083,171.098969 287.902649,172.683838 292.785278,174.013016 
	C292.842163,183.368530 292.899048,192.724045 292.480072,202.540161 
	C283.323578,202.000504 274.661469,200.471375 265.956451,200.165756 
	C258.871277,199.917007 252.765961,198.055161 246.762436,194.409866 
	C243.205994,192.250397 238.853058,191.383270 234.829224,190.020798 
	C232.666611,189.288544 230.454117,188.693848 228.243942,188.113968 
	C224.173141,187.045959 220.087463,186.034668 215.997452,184.537720 
	C215.595413,179.991318 215.203918,175.906921 214.812408,171.822540 
z"/>
<path fill="#5FB7DF" opacity="1.000000" stroke="none" 
	d="
M21.165134,234.005020 
	C21.115229,225.315201 21.065325,216.625397 21.454941,207.480835 
	C23.522526,207.999619 25.037546,209.442749 26.797935,209.866486 
	C35.047539,211.852158 43.307270,213.910095 51.672592,215.270950 
	C61.529659,216.874481 71.474792,218.344620 81.429405,218.778137 
	C86.866333,219.014923 92.401779,216.989777 97.925125,216.402405 
	C97.973137,218.214035 97.988815,219.607941 97.995819,221.470245 
	C97.979759,231.022141 98.038353,240.106628 97.904762,249.188263 
	C97.880440,250.841827 97.071114,252.483841 96.624176,254.131195 
	C92.999161,250.960541 89.374153,247.789886 85.376205,244.293030 
	C85.249214,245.561218 85.160782,246.444336 84.649857,247.705109 
	C82.443344,247.844971 80.056328,248.252365 78.985420,247.251526 
	C75.401878,243.902435 71.110512,243.311646 66.898026,244.157944 
	C55.285732,246.490921 44.642998,243.598053 34.134987,239.189453 
	C29.842258,237.388458 25.490200,235.728912 21.165134,234.005020 
z"/>
<path fill="#62BDDF" opacity="1.000000" stroke="none" 
	d="
M228.618042,244.703735 
	C224.612473,248.026566 220.606903,251.349396 216.289886,254.341797 
	C215.961578,243.344254 215.944717,232.677155 215.947983,221.565582 
	C215.985565,218.746689 216.003036,216.372253 216.396713,213.992950 
	C221.966049,211.455933 225.955261,212.769043 229.828140,217.050827 
	C231.646378,219.061035 234.901794,220.467377 237.669495,220.804581 
	C251.074066,222.437698 264.522430,223.759415 277.982574,224.856110 
	C281.508240,225.143372 285.131622,224.230591 288.229492,223.917511 
	C289.867798,225.016266 291.348816,226.009537 292.829834,227.002808 
	C292.880981,233.695053 292.932129,240.387314 292.459229,247.541458 
	C286.993896,248.383041 282.047821,248.709595 277.112579,249.155792 
	C270.886475,249.718719 264.677795,250.669006 258.443909,250.852692 
	C256.007538,250.924469 253.340546,249.706161 251.094528,248.491318 
	C243.990158,244.648712 236.926727,241.161743 228.618042,244.703735 
z"/>
<path fill="#62C3DE" opacity="1.000000" stroke="none" 
	d="
M292.903564,226.538757 
	C291.348816,226.009537 289.867798,225.016266 288.229492,223.917511 
	C285.131622,224.230591 281.508240,225.143372 277.982574,224.856110 
	C264.522430,223.759415 251.074066,222.437698 237.669495,220.804581 
	C234.901794,220.467377 231.646378,219.061035 229.828140,217.050827 
	C225.955261,212.769043 221.966049,211.455933 216.385300,213.524643 
	C216.001114,203.707352 216.004547,194.353546 216.007965,184.999725 
	C220.087463,186.034668 224.173141,187.045959 228.243942,188.113968 
	C230.454117,188.693848 232.666611,189.288544 234.829224,190.020798 
	C238.853058,191.383270 243.205994,192.250397 246.762436,194.409866 
	C252.765961,198.055161 258.871277,199.917007 265.956451,200.165756 
	C274.661469,200.471375 283.323578,202.000504 292.404205,203.003632 
	C292.861908,210.695908 292.919617,218.385315 292.903564,226.538757 
z"/>
<path fill="#5DB1DF" opacity="1.000000" stroke="none" 
	d="
M21.094475,234.468826 
	C25.490200,235.728912 29.842258,237.388458 34.134987,239.189453 
	C44.642998,243.598053 55.285732,246.490921 66.898026,244.157944 
	C71.110512,243.311646 75.401878,243.902435 78.985420,247.251526 
	C80.056328,248.252365 82.443344,247.844971 84.585083,248.042938 
	C84.994850,257.026459 85.046921,266.049835 84.676743,275.576691 
	C82.404137,276.973267 80.528694,278.666870 78.708115,278.609802 
	C73.180954,278.436646 67.669022,277.059265 62.162174,277.121765 
	C53.584366,277.219055 46.109467,274.626526 38.800735,270.386780 
	C33.187103,267.130341 27.055563,264.766693 21.154346,262.006012 
	C21.110836,252.981552 21.067326,243.957092 21.094475,234.468826 
z"/>
<path fill="#63BDE0" opacity="1.000000" stroke="none" 
	d="
M97.892792,215.984680 
	C92.401779,216.989777 86.866333,219.014923 81.429405,218.778137 
	C71.474792,218.344620 61.529659,216.874481 51.672592,215.270950 
	C43.307270,213.910095 35.047539,211.852158 26.797935,209.866486 
	C25.037546,209.442749 23.522526,207.999619 21.521503,207.016907 
	C21.109854,199.316269 21.071163,191.624847 21.460718,183.474640 
	C23.718189,183.456879 25.875418,184.751877 27.321867,184.196304 
	C35.036572,181.233170 41.760273,184.941772 48.383118,187.378006 
	C57.606693,190.770950 66.745377,193.711472 76.674408,194.081131 
	C83.762169,194.345032 90.823181,195.327728 97.929146,196.458344 
	C97.939041,203.279556 97.915916,209.632126 97.892792,215.984680 
z"/>
<path fill="#49A6D0" opacity="1.000000" stroke="none" 
	d="
M87.787003,142.108627 
	C86.638115,141.252487 85.489227,140.396362 84.651520,139.270386 
	C90.357384,139.187317 96.353218,137.422516 99.875435,143.692245 
	C100.117142,144.122498 101.048866,144.273346 101.685448,144.356110 
	C106.120605,144.932922 110.562553,145.457428 115.319077,146.138000 
	C122.424019,150.184464 129.212234,154.091614 136.231293,158.274750 
	C146.116043,162.426941 155.931168,164.333878 166.388733,162.106201 
	C171.519806,161.013168 177.566376,160.316071 180.838486,165.266678 
	C183.649780,169.520081 186.914047,170.246353 191.183731,170.055527 
	C182.918442,179.272598 173.505859,186.344437 160.549240,187.410934 
	C150.718948,188.220093 141.537338,186.360092 133.818497,180.271744 
	C120.414810,169.699448 107.396324,158.638779 94.191345,147.172119 
	C94.211311,142.655075 91.980850,141.098251 87.787003,142.108627 
z"/>
<path fill="#66C3E0" opacity="1.000000" stroke="none" 
	d="
M97.896126,195.989670 
	C90.823181,195.327728 83.762169,194.345032 76.674408,194.081131 
	C66.745377,193.711472 57.606693,190.770950 48.383118,187.378006 
	C41.760273,184.941772 35.036572,181.233170 27.321867,184.196304 
	C25.875418,184.751877 23.718189,183.456879 21.529583,183.010971 
	C21.122902,177.314560 21.075602,171.623032 21.459457,165.473785 
	C24.903315,166.596954 27.752756,167.017410 30.941544,165.021362 
	C32.255783,164.198715 34.457809,164.284348 36.122478,164.619736 
	C43.369946,166.079987 50.534199,167.964798 57.796730,169.334595 
	C62.432339,170.208923 67.214005,170.283615 71.879700,171.031647 
	C75.608871,171.629532 79.438820,172.264938 82.907005,173.667572 
	C88.041779,175.744263 92.895859,178.514999 97.909195,181.455994 
	C97.931335,186.611053 97.913734,191.300369 97.896126,195.989670 
z"/>
<path fill="#69C7E0" opacity="1.000000" stroke="none" 
	d="
M97.869431,180.990250 
	C92.895859,178.514999 88.041779,175.744263 82.907005,173.667572 
	C79.438820,172.264938 75.608871,171.629532 71.879700,171.031647 
	C67.214005,170.283615 62.432339,170.208923 57.796730,169.334595 
	C50.534199,167.964798 43.369946,166.079987 36.122478,164.619736 
	C34.457809,164.284348 32.255783,164.198715 30.941544,165.021362 
	C27.752756,167.017410 24.903315,166.596954 21.526711,165.010513 
	C21.127125,159.648041 21.091446,154.291122 21.470449,148.478302 
	C23.341410,148.926376 24.797688,149.830353 26.507120,150.891464 
	C29.580921,145.088120 34.638866,145.481003 39.909855,146.460999 
	C42.973564,147.030640 46.075954,147.401001 49.127617,148.024216 
	C52.436440,148.699966 55.689896,149.648453 59.000893,150.311172 
	C60.544697,150.620163 62.167263,150.535660 63.680653,150.625183 
	C62.356831,146.729553 61.287846,143.583832 60.218861,140.438110 
	C70.479523,149.049423 80.723396,157.680893 91.014587,166.255569 
	C93.149048,168.034012 95.459145,169.601654 97.830223,172.012756 
	C97.937912,175.502792 97.903671,178.246521 97.869431,180.990250 
z"/>
<path fill="#5DB7DD" opacity="1.000000" stroke="none" 
	d="
M228.486450,245.184906 
	C236.926727,241.161743 243.990158,244.648712 251.094528,248.491318 
	C253.340546,249.706161 256.007538,250.924469 258.443909,250.852692 
	C264.677795,250.669006 270.886475,249.718719 277.112579,249.155792 
	C282.047821,248.709595 286.993896,248.383041 292.383575,248.004944 
	C292.891541,256.029480 292.951080,264.052429 292.504913,272.538391 
	C285.333984,272.335327 278.672424,271.628876 272.002136,271.018250 
	C267.974121,270.649506 263.918579,270.556824 259.899597,270.118317 
	C248.824722,268.909882 239.102936,263.473999 228.755219,259.988434 
	C228.621780,255.214310 228.488327,250.440201 228.486450,245.184906 
z"/>
<path fill="#6CD3DB" opacity="1.000000" stroke="none" 
	d="
M292.863525,173.548721 
	C287.902649,172.683838 283.072083,171.098969 278.123840,170.092270 
	C272.351013,168.917816 266.398407,168.586136 260.663055,167.278214 
	C252.704620,165.463379 244.835861,163.208740 237.039871,160.784805 
	C236.012970,160.465500 235.641632,158.037735 234.941223,156.129059 
	C243.073715,148.910767 251.231644,142.149872 259.683838,135.648956 
	C258.095306,140.380020 259.608643,142.689911 264.415802,143.077698 
	C266.541321,143.249161 268.676575,143.551865 270.752563,144.032074 
	C274.886017,144.988174 280.371704,144.846375 282.752594,147.469345 
	C285.971924,151.016022 289.111938,150.890701 292.812439,151.012238 
	C292.855560,158.369629 292.898651,165.727036 292.863525,173.548721 
z"/>
<path fill="#5AABDF" opacity="1.000000" stroke="none" 
	d="
M21.085491,262.468903 
	C27.055563,264.766693 33.187103,267.130341 38.800735,270.386780 
	C46.109467,274.626526 53.584366,277.219055 62.162174,277.121765 
	C67.669022,277.059265 73.180954,278.436646 78.708115,278.609802 
	C80.528694,278.666870 82.404137,276.973267 84.607643,276.041321 
	C85.014793,282.025970 85.068794,288.049469 84.655670,294.543884 
	C77.209419,295.859985 70.070480,298.067047 63.284012,297.270599 
	C48.569313,295.543762 34.747761,290.737244 23.929441,279.704559 
	C23.355623,279.119385 22.080704,279.221680 21.132166,279.003937 
	C21.093657,273.646545 21.055147,268.289185 21.085491,262.468903 
z"/>
<path fill="#57C3CA" opacity="1.000000" stroke="none" 
	d="
M262.019135,88.967941 
	C264.116608,89.644714 266.214081,90.321487 268.693054,90.983673 
	C272.165863,93.390709 275.257202,95.812332 279.131348,98.847183 
	C274.484436,102.602943 270.424591,105.884232 266.079498,109.248138 
	C261.202576,109.494324 256.599274,109.507233 252.022385,109.861763 
	C246.958099,110.254059 242.120880,110.245728 238.001785,106.580391 
	C237.085953,105.765450 235.746658,105.186188 234.524490,104.994263 
	C225.958130,103.649063 219.940872,98.633156 214.915497,91.945801 
	C212.492706,88.721764 209.696884,85.778069 207.425964,82.347160 
	C212.144196,79.904282 216.342407,78.948990 220.590683,82.551697 
	C221.659912,83.458450 224.854218,83.871078 225.120972,83.401802 
	C227.842941,78.613220 232.013199,82.403130 234.206207,82.831764 
	C241.289383,84.216248 247.918213,87.777466 254.897614,89.931206 
	C256.974579,90.572128 259.629211,89.341202 262.019135,88.967941 
z"/>
<path fill="#549FE1" opacity="1.000000" stroke="none" 
	d="
M84.971184,319.001801 
	C84.971184,325.460175 84.971184,331.918518 84.971184,338.334106 
	C56.297871,342.959442 28.791399,328.137512 22.630062,299.442108 
	C24.706518,301.140015 26.046150,304.108521 28.231131,304.996185 
	C36.608593,308.399536 45.166904,311.439026 53.834946,314.018890 
	C60.256927,315.930267 66.920395,317.111725 73.540154,318.245422 
	C77.283875,318.886536 81.156578,318.774567 84.971184,319.001801 
z"/>
<path fill="#5AADDA" opacity="1.000000" stroke="none" 
	d="
M292.754974,292.006134 
	C291.082550,298.287720 289.410126,304.569305 287.280731,310.803284 
	C284.990082,310.372711 283.074402,310.208313 281.340790,309.558319 
	C278.315552,308.424042 275.504517,306.609070 272.415527,305.782379 
	C268.794922,304.813416 264.905212,304.878265 261.251587,303.998840 
	C249.914169,301.270050 237.880692,300.013458 229.661987,290.125916 
	C229.509003,289.941864 229.026108,290.031982 228.697144,289.994202 
	C228.596008,284.968658 228.494873,279.943115 228.857941,274.478241 
	C234.535294,277.140717 239.727448,280.278687 244.976730,283.318085 
	C246.244568,284.052185 247.659683,284.781677 249.078003,284.965149 
	C257.585175,286.065552 266.117767,286.967529 274.631317,288.021118 
	C277.564392,288.384064 280.493011,288.875610 283.376953,289.518158 
	C286.531158,290.220886 289.631287,291.166412 292.754974,292.006134 
z"/>
<path fill="#5BB1DC" opacity="1.000000" stroke="none" 
	d="
M292.856262,291.546539 
	C289.631287,291.166412 286.531158,290.220886 283.376953,289.518158 
	C280.493011,288.875610 277.564392,288.384064 274.631317,288.021118 
	C266.117767,286.967529 257.585175,286.065552 249.078003,284.965149 
	C247.659683,284.781677 246.244568,284.052185 244.976730,283.318085 
	C239.727448,280.278687 234.535294,277.140717 229.005066,274.037659 
	C228.598572,269.648193 228.509186,265.259949 228.587524,260.430054 
	C239.102936,263.473999 248.824722,268.909882 259.899597,270.118317 
	C263.918579,270.556824 267.974121,270.649506 272.002136,271.018250 
	C278.672424,271.628876 285.333984,272.335327 292.430847,273.002075 
	C292.894135,279.030823 292.925812,285.058899 292.856262,291.546539 
z"/>
<path fill="#53A2DA" opacity="1.000000" stroke="none" 
	d="
M280.744385,320.999023 
	C271.359100,331.306305 259.898926,337.707764 245.895554,338.844696 
	C240.285797,339.300140 234.608170,338.919617 228.418152,338.919617 
	C228.418152,328.793335 228.418152,318.858887 228.880295,308.484131 
	C235.842194,313.370789 243.170013,316.528717 251.619324,317.439026 
	C258.590393,318.190094 265.848816,318.076111 271.966858,322.667206 
	C272.913544,323.377594 275.097839,322.583038 276.668518,322.274353 
	C278.057037,322.001434 279.388000,321.435547 280.744385,320.999023 
z"/>
<path fill="#6DCCE0" opacity="1.000000" stroke="none" 
	d="
M60.087364,140.162689 
	C61.287846,143.583832 62.356831,146.729553 63.680653,150.625183 
	C62.167263,150.535660 60.544697,150.620163 59.000893,150.311172 
	C55.689896,149.648453 52.436440,148.699966 49.127617,148.024216 
	C46.075954,147.401001 42.973564,147.030640 39.909855,146.460999 
	C34.638866,145.481003 29.580921,145.088120 26.507120,150.891464 
	C24.797688,149.830353 23.341410,148.926376 21.538074,148.015793 
	C20.727316,136.051178 20.289951,124.097191 26.463396,112.372215 
	C37.893860,121.762680 48.924862,130.824982 60.087364,140.162689 
z"/>
<path fill="#57A7DA" opacity="1.000000" stroke="none" 
	d="
M281.014709,320.767120 
	C279.388000,321.435547 278.057037,322.001434 276.668518,322.274353 
	C275.097839,322.583038 272.913544,323.377594 271.966858,322.667206 
	C265.848816,318.076111 258.590393,318.190094 251.619324,317.439026 
	C243.170013,316.528717 235.842194,313.370789 229.028488,308.043518 
	C228.606369,302.325439 228.498215,296.607727 228.543594,290.442078 
	C229.026108,290.031982 229.509003,289.941864 229.661987,290.125916 
	C237.880692,300.013458 249.914169,301.270050 261.251587,303.998840 
	C264.905212,304.878265 268.794922,304.813416 272.415527,305.782379 
	C275.504517,306.609070 278.315552,308.424042 281.340790,309.558319 
	C283.074402,310.208313 284.990082,310.372711 287.010376,311.048523 
	C285.226349,314.405975 283.255707,317.470581 281.014709,320.767120 
z"/>
<path fill="#79D9DB" opacity="1.000000" stroke="none" 
	d="
M118.607864,31.997993 
	C119.461380,32.006474 120.129868,32.032524 120.771477,32.177483 
	C121.047012,32.239735 121.266754,32.548912 121.755852,32.942020 
	C120.511963,34.611885 119.252357,36.302853 117.246742,38.995300 
	C122.671875,38.760326 129.155853,32.022293 129.696304,42.756184 
	C125.261314,45.861343 121.128799,48.424091 116.996284,50.986832 
	C107.204514,56.565777 97.412743,62.144726 87.310394,67.876816 
	C76.101913,74.467148 65.204018,80.904343 54.142860,87.635864 
	C51.212326,88.950638 48.445045,89.971069 45.295174,90.968887 
	C55.552197,82.243103 66.123650,73.454865 76.849289,64.859032 
	C89.275742,54.900131 101.837723,45.110359 115.024536,35.114101 
	C116.435303,34.216053 117.162407,33.451069 117.889511,32.686081 
	C117.980026,32.408401 118.154175,32.200958 118.607864,31.997993 
z"/>
<path fill="#72D8DA" opacity="1.000000" stroke="none" 
	d="
M292.885498,150.547241 
	C289.111938,150.890701 285.971924,151.016022 282.752594,147.469345 
	C280.371704,144.846375 274.886017,144.988174 270.752563,144.032074 
	C268.676575,143.551865 266.541321,143.249161 264.415802,143.077698 
	C259.608643,142.689911 258.095306,140.380020 259.986755,135.525208 
	C268.997864,127.648270 278.000214,120.155045 287.428589,112.307243 
	C294.247162,124.659264 292.934662,137.472046 292.885498,150.547241 
z"/>
<path fill="#59A6DF" opacity="1.000000" stroke="none" 
	d="
M21.062469,279.466125 
	C22.080704,279.221680 23.355623,279.119385 23.929441,279.704559 
	C34.747761,290.737244 48.569313,295.543762 63.284012,297.270599 
	C70.070480,298.067047 77.209419,295.859985 84.585602,295.007996 
	C85.026024,299.361115 85.069397,303.720978 84.677406,308.580841 
	C81.158234,310.872589 78.221092,311.279358 74.966789,309.108612 
	C73.585884,308.187469 71.488037,308.350525 69.720619,307.997833 
	C62.621418,306.580902 55.483208,305.330109 48.436249,303.688171 
	C39.595871,301.628387 30.830858,299.245178 22.033318,297.001587 
	C21.686470,291.310516 21.339622,285.619415 21.062469,279.466125 
z"/>
<path fill="#3F98C7" opacity="1.000000" stroke="none" 
	d="
M97.909187,181.455994 
	C97.903671,178.246521 97.937912,175.502792 98.003220,172.298508 
	C103.288567,175.917038 108.542831,179.996124 113.970253,184.342957 
	C114.094193,197.428238 114.044968,210.245804 113.605225,223.485779 
	C108.144630,222.939407 103.074570,221.970627 98.004501,221.001831 
	C97.988815,219.607941 97.973137,218.214035 97.925125,216.402405 
	C97.915916,209.632126 97.939041,203.279556 97.929146,196.458344 
	C97.913734,191.300369 97.931335,186.611053 97.909187,181.455994 
z"/>
<path fill="#429FC8" opacity="1.000000" stroke="none" 
	d="
M215.997437,184.537720 
	C216.004547,194.353546 216.001114,203.707352 216.009094,213.529480 
	C216.003036,216.372253 215.985565,218.746689 215.509598,221.562332 
	C210.034683,221.336304 205.018250,220.669067 200.001831,220.001831 
	C200.000488,217.630188 199.999146,215.258545 199.997696,211.974091 
	C200.004761,202.113464 200.011948,193.165665 200.019135,184.217834 
	C204.752777,180.187958 209.486450,176.158096 214.516266,171.975388 
	C215.203918,175.906921 215.595413,179.991318 215.997437,184.537720 
z"/>
<path fill="#4296CB" opacity="1.000000" stroke="none" 
	d="
M200.001434,220.470215 
	C205.018250,220.669067 210.034683,221.336304 215.489487,222.006775 
	C215.944717,232.677155 215.961578,243.344254 215.987030,254.474579 
	C211.540085,259.214478 207.084549,263.491211 202.317139,267.889771 
	C201.336884,262.109772 200.590286,256.215210 200.037750,250.302536 
	C199.810165,247.867188 199.999863,245.392868 199.998657,242.467529 
	C199.998703,234.978714 199.999863,227.958664 200.001434,220.470215 
z"/>
<path fill="#4EAFD1" opacity="1.000000" stroke="none" 
	d="
M191.518082,169.996368 
	C186.914047,170.246353 183.649780,169.520081 180.838486,165.266678 
	C177.566376,160.316071 171.519806,161.013168 166.388733,162.106201 
	C155.931168,164.333878 146.116043,162.426941 136.494736,157.990479 
	C140.414352,157.809387 144.327026,158.018051 148.183838,158.598099 
	C162.685410,160.779053 176.804367,161.115952 189.309723,150.847198 
	C193.759811,148.163162 197.536636,144.732910 203.117859,146.538208 
	C207.425247,147.931488 211.867111,148.908981 216.249191,150.071350 
	C208.116943,156.693298 199.984680,163.315262 191.518082,169.996368 
z"/>
<path fill="#4091CB" opacity="1.000000" stroke="none" 
	d="
M97.995819,221.470245 
	C103.074570,221.970627 108.144630,222.939407 113.602722,223.954498 
	C113.992805,225.067383 113.994858,226.133972 113.996750,227.600586 
	C113.664764,229.717377 113.059715,231.431839 113.045135,233.151291 
	C112.945564,244.900467 112.970032,256.650696 112.921387,268.900391 
	C107.592163,264.503387 102.296059,259.606567 96.812057,254.420471 
	C97.071114,252.483841 97.880440,250.841827 97.904762,249.188263 
	C98.038353,240.106628 97.979759,231.022141 97.995819,221.470245 
z"/>
<path fill="#57A3E0" opacity="1.000000" stroke="none" 
	d="
M22.002766,297.345337 
	C30.830858,299.245178 39.595871,301.628387 48.436249,303.688171 
	C55.483208,305.330109 62.621418,306.580902 69.720619,307.997833 
	C71.488037,308.350525 73.585884,308.187469 74.966789,309.108612 
	C78.221092,311.279358 81.158234,310.872589 84.605804,309.041077 
	C85.018227,312.035004 85.066895,315.068604 85.043365,318.552002 
	C81.156578,318.774567 77.283875,318.886536 73.540154,318.245422 
	C66.920395,317.111725 60.256927,315.930267 53.834946,314.018890 
	C45.166904,311.439026 36.608593,308.399536 28.231131,304.996185 
	C26.046150,304.108521 24.706518,301.140015 22.645298,299.072296 
	C22.198711,298.574646 22.085461,298.131836 22.002766,297.345337 
z"/>
<path fill="#51B5D0" opacity="1.000000" stroke="none" 
	d="
M216.550064,149.946381 
	C211.867111,148.908981 207.425247,147.931488 203.117859,146.538208 
	C197.536636,144.732910 193.759811,148.163162 189.314117,150.478073 
	C189.339203,148.840973 189.669601,147.420792 190.000000,146.000610 
	C197.976318,145.211807 203.593735,139.998962 209.806854,135.271423 
	C212.475204,133.692642 214.830185,131.982529 217.461456,131.191910 
	C219.997971,130.429749 223.699188,129.425888 225.334747,130.633286 
	C228.830109,133.213608 232.359528,132.951721 236.529663,132.995560 
	C230.265717,138.601700 223.558334,144.211563 216.550064,149.946381 
z"/>
<path fill="#4BAACE" opacity="1.000000" stroke="none" 
	d="
M115.002335,145.998688 
	C110.562553,145.457428 106.120605,144.932922 101.685448,144.356110 
	C101.048866,144.273346 100.117142,144.122498 99.875435,143.692245 
	C96.353218,137.422516 90.357384,139.187317 84.508041,138.998871 
	C77.433800,133.616455 70.814240,128.235733 64.176376,122.240860 
	C66.623245,117.569603 69.771568,117.218239 73.573563,119.783905 
	C75.313644,120.958145 77.187836,121.933655 79.307358,123.149796 
	C83.385918,125.688126 87.172279,128.054230 90.927849,130.468246 
	C98.961121,135.631927 106.978462,140.820374 115.002335,145.998688 
z"/>
<path fill="#45A7D1" opacity="1.000000" stroke="none" 
	d="
M199.716919,184.335876 
	C200.011948,193.165665 200.004761,202.113464 199.996338,211.529724 
	C190.095459,210.105087 180.195801,208.212006 170.061584,205.984589 
	C181.395447,200.965988 189.970230,192.102936 199.716919,184.335876 
z"/>
<path fill="#54B2CE" opacity="1.000000" stroke="none" 
	d="
M79.001205,122.999290 
	C77.187836,121.933655 75.313644,120.958145 73.573563,119.783905 
	C69.771568,117.218239 66.623245,117.569603 63.996895,121.965553 
	C55.210106,115.375504 46.559883,108.476715 37.994907,101.473679 
	C37.084698,100.729454 36.673660,99.374733 36.272530,98.079399 
	C44.292850,98.177803 49.768776,103.307068 56.073914,106.884972 
	C62.149555,110.332634 67.131516,116.139801 74.927948,116.317726 
	C75.755508,116.336617 76.549103,117.844185 77.818413,119.151077 
	C78.519318,120.760452 78.760262,121.879875 79.001205,122.999290 
z"/>
<path fill="#55BFCF" opacity="1.000000" stroke="none" 
	d="
M241.001434,119.438484 
	C243.073334,118.635986 245.134811,118.192741 247.218781,117.923332 
	C249.997116,117.564163 252.792938,117.340149 256.002075,117.102356 
	C251.827576,121.022758 247.232269,124.898895 242.319977,128.888824 
	C241.669006,125.960121 241.335022,122.917625 241.001434,119.438484 
z"/>
<path fill="#4BAACE" opacity="1.000000" stroke="none" 
	d="
M87.960327,142.394608 
	C91.980850,141.098251 94.211311,142.655075 94.031326,146.879089 
	C91.975403,145.691422 90.054527,144.186005 87.960327,142.394608 
z"/>
<path fill="#79DDD5" opacity="1.000000" stroke="none" 
	d="
M117.593582,32.805367 
	C117.162407,33.451069 116.435303,34.216053 115.331749,34.982880 
	C115.736076,34.298031 116.516869,33.611340 117.593582,32.805367 
z"/>
<path fill="#52B5D3" opacity="1.000000" stroke="none" 
	d="
M79.307358,123.149796 
	C78.760262,121.879875 78.519318,120.760452 78.139359,119.320518 
	C81.158432,120.332047 84.656052,121.180794 87.397141,123.106438 
	C91.800354,126.199730 96.534775,126.763947 101.640739,127.036209 
	C105.896393,127.263123 110.097458,128.402115 114.339348,129.023468 
	C121.565643,130.082001 128.867554,130.741623 136.013260,132.184906 
	C139.751038,132.939865 143.313782,134.821976 146.795547,136.522675 
	C152.003387,139.066513 156.919876,141.089813 163.226456,140.333740 
	C168.233246,139.733459 173.603317,141.722763 178.747055,142.857300 
	C182.294510,143.639725 185.730881,144.925720 189.608459,145.993637 
	C189.669601,147.420792 189.339203,148.840973 189.004410,150.630280 
	C176.804367,161.115952 162.685410,160.779053 148.183838,158.598099 
	C144.327026,158.018051 140.414352,157.809387 136.263885,157.714508 
	C129.212234,154.091614 122.424019,150.184464 115.319077,146.138000 
	C106.978462,140.820374 98.961121,135.631927 90.927849,130.468246 
	C87.172279,128.054230 83.385918,125.688126 79.307358,123.149796 
z"/>
<path fill="#55C3C7" opacity="1.000000" stroke="none" 
	d="
M116.997688,51.400253 
	C121.128799,48.424091 125.261314,45.861343 129.696609,43.138718 
	C145.691513,34.132774 162.102112,33.018822 178.319611,40.465034 
	C189.140228,45.433300 199.105545,52.263424 209.457275,58.254032 
	C226.841156,68.314178 244.227921,78.369347 261.816284,88.697273 
	C259.629211,89.341202 256.974579,90.572128 254.897614,89.931206 
	C247.918213,87.777466 241.289383,84.216248 234.206207,82.831764 
	C232.013199,82.403130 227.842941,78.613220 225.120972,83.401802 
	C224.854218,83.871078 221.659912,83.458450 220.590683,82.551697 
	C216.342407,78.948990 212.144196,79.904282 207.391281,81.993591 
	C205.280228,81.471825 203.317154,81.309807 201.877991,80.356712 
	C190.662140,72.928955 177.238785,71.186539 165.171143,65.955750 
	C158.726151,63.162140 152.060013,60.804371 145.345718,58.728535 
	C139.322388,56.866325 133.152725,55.299294 126.934227,54.328190 
	C124.182983,53.898544 121.151863,55.261124 117.563034,55.939556 
	C117.366554,54.502075 117.182823,53.157875 116.997688,51.400253 
z"/>
</svg>