<svg version="1.1" id="Layer_1" xmlns="http://www.w3.org/2000/svg" xmlns:xlink="http://www.w3.org/1999/xlink" x="0px" y="0px"
	 width="100%" viewBox="0 0 336 269" enable-background="new 0 0 336 269" xml:space="preserve">
<path fill="#62C8CC" opacity="1.000000" stroke="none" 
	d="
M229.056473,135.038651 
	C226.078186,137.484161 223.099899,139.929657 219.800873,142.917664 
	C219.336029,143.985336 219.191925,144.510529 219.047836,145.035721 
	C219.047836,145.035721 219.000595,145.010132 218.828918,145.160019 
	C218.409882,145.519012 218.199844,145.760574 218.027145,146.034592 
	C218.027145,146.034592 218.000000,145.999924 217.823578,146.156662 
	C217.402863,146.526871 217.195892,146.771881 217.026230,147.048416 
	C217.026230,147.048416 217.004196,146.997955 216.763336,147.002289 
	C216.347855,147.006424 216.173203,147.006241 215.683746,146.845001 
	C211.822021,142.083267 207.872269,142.896255 203.101669,144.950714 
	C200.743179,145.966415 197.390549,145.019608 194.566299,144.518219 
	C191.219437,143.924042 188.003479,142.494858 184.648911,142.061813 
	C177.250534,141.106766 169.806061,140.486923 162.369278,139.862793 
	C159.607117,139.630997 156.805038,139.901245 154.036407,139.715469 
	C144.661484,139.086395 135.275146,142.373444 125.856728,139.348679 
	C123.277527,138.520355 120.172729,138.728943 117.439362,139.206726 
	C115.818184,139.490128 113.581451,140.957977 113.141655,142.367554 
	C112.041130,145.894806 109.735855,146.075089 107.443588,144.718613 
	C105.390533,143.503677 103.965729,141.227097 101.852341,138.981827 
	C100.288841,138.981827 97.644257,138.981827 94.971298,138.627380 
	C92.569557,132.726501 93.390968,130.944092 99.389618,129.920258 
	C107.995087,128.451462 116.646782,127.251701 125.282745,125.963936 
	C131.567429,125.026794 137.835739,123.821526 144.156982,123.358452 
	C147.081985,123.144165 150.129883,124.353111 153.095688,125.032021 
	C155.409088,125.561584 157.710419,128.064346 159.940613,124.902916 
	C160.946503,123.783974 161.952377,122.665031 163.418518,121.262299 
	C164.248459,120.979942 164.618179,120.981384 164.993988,120.991119 
	C165.000076,120.999405 165.016464,121.011490 165.011566,121.258072 
	C165.006668,121.504646 164.996353,121.997795 164.866501,122.108231 
	C164.731720,122.442566 164.726791,122.666481 164.721863,122.890388 
	C164.815918,122.595009 164.909958,122.299629 165.383453,122.076210 
	C169.206360,123.266869 172.576706,124.804062 176.107834,125.421173 
	C184.672272,126.917953 193.279388,128.347794 201.930450,129.117599 
	C209.344864,129.777374 217.004608,132.129456 224.194977,127.754097 
	C225.702454,126.836792 227.416794,126.259453 229.553497,125.290749 
	C229.369690,128.895813 229.213089,131.967239 229.056473,135.038651 
z"/>
<path fill="#4CB2CF" opacity="1.000000" stroke="none" 
	d="
M218.013397,66.939011 
	C225.583130,59.541477 232.738312,51.648125 240.833984,44.879662 
	C249.716919,37.453007 260.602875,37.132114 271.609253,38.920422 
	C272.748657,39.105553 273.934265,39.006310 275.266052,39.288910 
	C274.357544,39.851006 273.281433,40.163216 272.205292,40.475422 
	C277.773071,42.081268 279.952179,49.863758 287.161224,48.698853 
	C286.721588,47.389896 286.395752,46.419743 285.565399,43.947365 
	C292.596069,50.075237 298.354156,47.211170 304.041229,44.503757 
	C309.075073,42.107327 314.013397,39.510296 318.994507,37.425835 
	C318.278107,40.966129 318.537354,45.179550 316.589569,46.912670 
	C314.309296,48.941677 313.310120,50.360516 313.431122,53.313530 
	C313.609436,57.663177 310.511292,59.057827 305.951752,59.723396 
	C302.253052,60.263298 298.792786,62.969875 295.433594,65.049538 
	C294.015106,65.927727 293.127319,67.663162 291.895416,68.690643 
	C289.003906,64.709335 286.185181,63.609077 281.902954,66.774651 
	C279.717682,68.390121 276.298676,68.783295 273.404083,68.899101 
	C267.496460,69.135445 261.563843,68.876839 255.647934,68.652740 
	C254.622482,68.613892 253.382523,67.976158 252.660294,67.216843 
	C248.178574,62.505039 239.033783,62.077328 233.646286,65.693283 
	C229.000198,68.811623 223.681320,70.474228 217.995544,67.735596 
	C218.005508,67.293045 218.009445,67.116028 218.013397,66.939011 
z"/>
<path fill="#67CCCB" opacity="1.000000" stroke="none" 
	d="
M94.999672,138.981827 
	C97.644257,138.981827 100.288841,138.981827 101.852341,138.981827 
	C103.965729,141.227097 105.390533,143.503677 107.443588,144.718613 
	C109.735855,146.075089 112.041130,145.894806 113.141655,142.367554 
	C113.581451,140.957977 115.818184,139.490128 117.439362,139.206726 
	C120.172729,138.728943 123.277527,138.520355 125.856728,139.348679 
	C135.275146,142.373444 144.661484,139.086395 154.036407,139.715469 
	C156.805038,139.901245 159.607117,139.630997 162.369278,139.862793 
	C169.806061,140.486923 177.250534,141.106766 184.648911,142.061813 
	C188.003479,142.494858 191.219437,143.924042 194.566299,144.518219 
	C197.390549,145.019608 200.743179,145.966415 203.101669,144.950714 
	C207.872269,142.896255 211.822021,142.083267 215.689484,147.108444 
	C216.021881,147.708420 216.033752,147.883911 216.045609,148.059387 
	C216.045609,148.059387 216.000366,148.009064 215.832703,148.165527 
	C215.414459,148.537125 215.204498,148.786453 215.035141,149.069977 
	C215.035141,149.069977 215.016968,148.999512 214.738220,149.100021 
	C213.991287,149.818451 213.523117,150.436371 213.054947,151.054291 
	C213.054947,151.054291 212.997620,151.014572 212.833084,151.166046 
	C212.418396,151.529724 212.208237,151.776062 212.038071,152.056503 
	C212.038071,152.056503 212.002808,152.002594 211.835327,152.161179 
	C211.421188,152.529846 211.217316,152.775452 211.056244,153.056580 
	C210.887695,153.339478 210.719131,153.622375 210.108795,154.116302 
	C209.417587,154.537659 209.207352,154.781754 209.036316,155.059616 
	C209.036316,155.059616 209.013123,155.000000 208.653320,155.022308 
	C206.222305,156.467499 204.148056,157.885971 202.081085,159.314987 
	C200.969208,160.083710 199.739532,161.675888 198.785492,161.521515 
	C191.288177,160.308411 184.048477,163.057648 176.012482,160.756805 
	C167.982925,158.457825 158.800873,159.070587 150.282379,156.800827 
	C148.834091,156.414902 145.894928,157.803146 145.207932,159.162079 
	C143.691406,162.161972 142.179825,161.716766 139.621780,160.872986 
	C137.137085,160.053391 134.177994,159.427567 131.728897,160.002274 
	C126.557465,161.215790 121.939651,161.718552 118.172073,157.043198 
	C115.975998,154.317978 114.337898,155.507812 112.747643,157.998505 
	C112.293213,158.014542 112.111771,158.028580 111.930321,158.042618 
	C111.930321,158.042618 111.994370,158.023056 111.854584,157.838959 
	C111.448341,157.437027 111.181892,157.219177 110.915443,157.001343 
	C110.915443,157.001343 111.000389,157.001144 110.856888,156.827728 
	C110.447929,156.436310 110.182472,156.218307 109.917015,156.000305 
	C109.917015,156.000305 110.000008,155.999008 109.855225,155.825821 
	C109.443893,155.435684 109.177361,155.218719 108.910820,155.001770 
	C108.910820,155.001770 108.999886,155.000961 108.853439,154.829620 
	C108.439392,154.439117 108.171783,154.219940 107.904175,154.000763 
	C107.904175,154.000763 107.999130,154.000687 107.854202,153.829834 
	C107.439873,153.440186 107.170471,153.221420 106.901062,153.002640 
	C106.901062,153.002640 106.998116,153.002182 106.855179,152.832001 
	C106.444878,152.441635 106.177513,152.221436 105.910149,152.001236 
	C105.910149,152.001236 105.999611,152.000916 105.855545,151.828033 
	C105.442688,151.437515 105.173882,151.219864 104.905083,151.002213 
	C104.905083,151.002213 104.998924,151.001114 104.854485,150.830795 
	C104.442535,150.440826 104.175026,150.221161 103.907516,150.001511 
	C103.907516,150.001511 103.999443,150.001175 103.855484,149.830322 
	C103.445351,149.440231 103.179184,149.220978 102.913010,149.001724 
	C102.913010,149.001724 103.001373,149.002594 102.858337,148.831268 
	C102.453232,148.439606 102.191162,148.219299 101.929100,147.998978 
	C101.929100,147.998978 102.000870,147.997726 101.855675,147.821106 
	C101.444252,147.430450 101.178032,147.216415 100.911804,147.002365 
	C100.911804,147.002365 100.980370,147.009766 100.961205,146.684097 
	C99.599319,145.249298 98.256607,144.140167 96.913895,143.031036 
	C96.913895,143.031036 96.990379,143.021957 96.851807,142.840942 
	C96.445374,142.440369 96.177521,142.220840 95.909676,142.001297 
	C95.909676,142.001297 95.979546,142.008881 95.964325,141.844208 
	C95.608154,141.469238 95.267204,141.258926 94.926254,141.048615 
	C94.575943,141.005951 94.305428,140.836166 94.057175,140.035339 
	C94.003052,139.353561 94.006454,139.175705 94.257324,138.994690 
	C94.504791,138.991501 94.999672,138.981827 94.999672,138.981827 
z"/>
<path fill="#6DD0CA" opacity="1.000000" stroke="none" 
	d="
M113.020622,157.996475 
	C114.337898,155.507812 115.975998,154.317978 118.172073,157.043198 
	C121.939651,161.718552 126.557465,161.215790 131.728897,160.002274 
	C134.177994,159.427567 137.137085,160.053391 139.621780,160.872986 
	C142.179825,161.716766 143.691406,162.161972 145.207932,159.162079 
	C145.894928,157.803146 148.834091,156.414902 150.282379,156.800827 
	C158.800873,159.070587 167.982925,158.457825 176.012482,160.756805 
	C184.048477,163.057648 191.288177,160.308411 198.785492,161.521515 
	C199.739532,161.675888 200.969208,160.083710 202.081085,159.314987 
	C204.148056,157.885971 206.222305,156.467499 208.669952,155.051926 
	C200.072342,164.159210 191.098282,173.259201 181.818634,182.842346 
	C181.316650,183.559174 181.166809,183.819641 181.063522,184.106903 
	C181.019577,184.453964 180.850388,184.721970 180.117371,185.119904 
	C179.419403,185.538620 179.210464,185.790237 179.051971,186.083740 
	C178.875458,186.356522 178.698944,186.629303 178.082977,187.112732 
	C177.394958,187.539642 177.188553,187.790619 177.024368,188.076309 
	C177.024368,188.076309 177.043015,188.009247 176.622894,188.021851 
	C173.787247,187.303207 171.405960,186.396088 168.941452,185.916611 
	C167.749527,185.684723 166.296417,186.011642 165.142532,186.507050 
	C160.734467,188.399658 156.109329,189.996063 152.714432,193.947540 
	C151.956207,193.595322 151.478577,193.298767 150.994476,192.634308 
	C150.287933,188.805023 149.239380,185.981720 144.655792,188.999161 
	C143.847855,189.014389 143.386292,189.027985 142.924713,189.041580 
	C142.924713,189.041580 142.989929,189.023651 142.846771,188.843292 
	C142.438950,188.444901 142.174271,188.226898 141.909576,188.008896 
	C141.909576,188.008896 141.992004,188.007217 141.844879,187.835052 
	C141.431000,187.445480 141.164276,187.228073 140.897537,187.010681 
	C140.897537,187.010681 140.992279,187.009186 140.842010,186.840912 
	C140.421600,186.452087 140.151459,186.231522 139.881317,186.010971 
	C139.881317,186.010971 139.989059,186.010544 139.841064,185.845245 
	C139.423126,185.457092 139.153152,185.234238 138.883194,185.011383 
	C138.883194,185.011383 138.990860,185.011688 138.843689,184.845825 
	C138.427246,184.456589 138.157990,184.233200 137.888718,184.009827 
	C137.888718,184.009827 137.991760,184.009247 137.843811,183.842407 
	C137.424911,183.454681 137.153961,183.233780 136.882996,183.012878 
	C136.882996,183.012878 136.989975,183.009918 136.841553,182.845856 
	C136.423935,182.458191 136.154755,182.234558 135.885574,182.010941 
	C135.885574,182.010941 135.991440,182.010025 135.839783,181.844406 
	C135.412354,181.460358 135.136597,181.241913 134.860840,181.023483 
	C134.528885,181.007935 134.275146,180.859070 133.898712,180.132935 
	C133.429733,179.461487 133.161667,179.233994 132.893585,179.006516 
	C132.893585,179.006516 132.994293,179.007095 132.846680,178.840378 
	C132.432022,178.451401 132.164978,178.229126 131.897919,178.006851 
	C131.897919,178.006851 131.994339,178.006653 131.844299,177.837830 
	C131.420502,177.451340 131.146729,177.233673 130.872971,177.016022 
	C130.872971,177.016022 130.986145,177.010300 130.835297,176.848969 
	C130.409332,176.466019 130.134232,176.244415 129.859131,176.022797 
	C129.859131,176.022797 129.946091,176.034012 129.927185,175.712616 
	C128.914017,174.607071 127.919754,173.822922 126.925491,173.038757 
	C126.925491,173.038757 126.990929,173.022079 126.848389,172.841446 
	C126.441467,172.443390 126.177078,172.225952 125.912697,172.008514 
	C125.912697,172.008514 125.992134,172.006424 125.845032,171.833237 
	C125.431038,171.443451 125.164154,171.226852 124.897278,171.010254 
	C124.897278,171.010254 124.992554,171.008698 124.843094,170.840607 
	C124.424332,170.451752 124.155037,170.230972 123.885742,170.010193 
	C123.885742,170.010193 123.989960,170.009735 123.842545,169.843597 
	C123.426720,169.454849 123.158310,169.232239 122.889900,169.009613 
	C122.889900,169.009613 122.992088,169.010529 122.846359,168.842957 
	C122.433861,168.452744 122.167091,168.230118 121.900322,168.007477 
	C121.900322,168.007477 121.994179,168.007217 121.847702,167.837814 
	C121.433990,167.448196 121.166756,167.227966 120.899513,167.007751 
	C120.899513,167.007751 120.993652,167.006500 120.846832,166.837830 
	C120.433037,166.448685 120.166069,166.228210 119.899101,166.007721 
	C119.899101,166.007721 119.994133,166.006729 119.845497,165.837524 
	C119.425499,165.450668 119.154137,165.233002 118.882767,165.015320 
	C118.543671,165.000488 118.285019,164.848633 117.905914,164.115891 
	C117.438690,163.450546 117.172356,163.229095 116.906013,163.007629 
	C116.906013,163.007629 116.974571,163.014740 116.949066,162.684875 
	C115.913315,161.590363 114.903069,160.825714 113.892822,160.061050 
	C113.892822,160.061050 113.973434,160.054260 113.831047,159.872482 
	C113.422142,159.462860 113.155624,159.235001 112.889114,159.007141 
	C112.889114,159.007141 112.959343,159.014603 112.978813,158.777374 
	C113.005730,158.358917 113.013176,158.177704 113.020622,157.996475 
z"/>
<path fill="#4BAECF" opacity="1.000000" stroke="none" 
	d="
M68.041130,40.000172 
	C68.041130,40.000172 68.530655,40.076866 68.988235,40.320778 
	C69.973770,40.708340 70.501724,40.851990 71.029671,40.995640 
	C71.029671,40.995640 70.989441,41.009476 71.198593,41.199997 
	C71.954964,41.593243 72.502174,41.795975 73.049385,41.998707 
	C77.426605,45.250328 81.904312,48.377579 86.142143,51.801712 
	C88.560150,53.755451 90.587021,56.193272 92.920883,59.080132 
	C93.119728,60.999817 93.187691,62.252491 93.302444,64.367538 
	C91.035484,63.462231 89.464508,62.727112 87.826073,62.202782 
	C84.315407,61.079304 80.693184,58.978367 77.253906,59.221260 
	C68.911346,59.810444 60.575954,60.523262 52.585423,64.074455 
	C46.919968,66.592331 40.397934,67.194618 34.240578,68.573029 
	C33.708832,68.692070 32.924004,68.368790 32.461540,67.996544 
	C29.612049,65.702911 26.821383,63.336205 24.006712,60.533638 
	C24.003340,53.542526 23.323217,46.905575 26.978798,40.943226 
	C26.978798,40.943226 26.995443,41.001762 27.174633,40.856464 
	C27.562801,40.449501 27.771780,40.187840 27.980761,39.926174 
	C27.980761,39.926174 27.997795,39.986652 28.440964,39.987652 
	C41.936466,39.992489 54.988796,39.996330 68.041130,40.000172 
z"/>
<path fill="#48ACCE" opacity="1.000000" stroke="none" 
	d="
M318.993896,37.001831 
	C314.013397,39.510296 309.075073,42.107327 304.041229,44.503757 
	C298.354156,47.211170 292.596069,50.075237 285.565399,43.947365 
	C286.395752,46.419743 286.721588,47.389896 287.161224,48.698853 
	C279.952179,49.863758 277.773071,42.081268 272.205292,40.475422 
	C273.281433,40.163216 274.357544,39.851006 275.692444,39.370235 
	C276.263306,38.564659 277.002197,37.545288 276.824554,37.347015 
	C273.135071,33.228874 269.327179,29.217211 265.579742,25.150351 
	C264.739410,24.238430 264.038818,23.197775 262.879272,21.710093 
	C271.874115,20.398846 279.901550,19.181799 287.943237,18.067722 
	C298.950073,16.542858 309.979126,15.173601 320.972473,13.559260 
	C323.576843,13.176813 325.341217,12.894979 323.665771,16.994160 
	C321.866394,24.071146 320.430145,30.536486 318.993896,37.001831 
z"/>
<path fill="#59BECE" opacity="1.000000" stroke="none" 
	d="
M179.964600,105.900604 
	C185.414169,100.011200 190.863739,94.121788 196.661835,88.468613 
	C197.767456,89.633392 198.383179,91.162079 199.307663,91.379829 
	C202.278305,92.079498 205.358704,92.331467 208.404510,92.690384 
	C217.433548,93.754379 226.468246,94.770348 235.496750,95.838829 
	C239.895721,96.359436 244.336121,97.655396 248.667587,97.344460 
	C254.446060,96.929665 259.686005,92.971077 265.904236,94.234489 
	C266.499023,94.355339 267.305298,93.435318 268.015259,93.348511 
	C268.026794,94.164993 268.036469,94.631462 268.046112,95.097931 
	C265.277191,98.307869 262.508270,101.517799 259.202240,105.032455 
	C258.423004,105.822754 258.180878,106.308327 257.938751,106.793900 
	C257.938751,106.793892 257.527252,106.942680 256.938782,106.994499 
	C252.973389,107.641411 251.131363,109.587959 251.040695,113.076553 
	C251.040695,113.076553 251.019211,113.012970 250.742706,113.094719 
	C249.986221,113.808144 249.506210,114.439819 249.026215,115.071503 
	C249.026230,115.071510 249.013245,115.006683 248.830780,115.148300 
	C248.436188,115.556641 248.224060,115.823372 248.011932,116.090088 
	C248.011932,116.090088 248.010254,116.011185 247.833282,116.151535 
	C247.441910,116.558189 247.227524,116.824501 247.013153,117.090820 
	C247.013153,117.090820 247.016205,117.023491 246.705353,117.019424 
	C245.937546,117.014961 245.480606,117.014557 244.842712,116.761841 
	C244.964066,114.547394 245.266388,112.585258 245.682388,109.885361 
	C236.343597,113.164978 227.773376,115.273499 218.544144,113.123077 
	C212.627655,111.744522 206.365738,111.899567 200.389572,110.709656 
	C195.804291,109.796692 191.423538,107.856468 186.951828,106.373093 
	C185.756699,106.084404 184.501816,107.388710 183.016708,107.752052 
	C182.199249,107.952057 180.994659,106.569603 179.964600,105.900604 
z"/>
<path fill="#7DD9C4" opacity="1.000000" stroke="none" 
	d="
M80.815796,217.993973 
	C80.859390,222.034454 80.902985,226.074921 80.557808,230.732758 
	C74.989189,234.748367 67.570183,232.921204 63.331684,238.552673 
	C63.172916,238.763611 62.637550,238.923874 62.413097,238.818710 
	C56.155571,235.887024 50.075623,237.179535 43.610756,238.535339 
	C40.390091,239.210754 36.384636,236.744507 32.890625,235.316559 
	C30.327639,234.269089 27.019033,233.700104 27.281269,229.490036 
	C27.328499,228.731796 25.154064,227.835175 23.796406,226.999481 
	C23.587461,226.996536 23.169575,226.991318 23.169575,226.991318 
	C23.120075,222.627487 23.070576,218.263657 23.273878,213.176056 
	C24.019474,211.301468 24.512268,210.150650 25.352303,209.059723 
	C29.973721,208.293320 32.777977,212.218323 36.286404,212.702209 
	C43.967930,213.761642 51.838688,214.105743 59.593437,213.790222 
	C67.137680,213.483276 74.379570,213.317001 80.815796,217.993973 
z"/>
<path fill="#5EC3CE" opacity="1.000000" stroke="none" 
	d="
M179.581177,105.942947 
	C180.994659,106.569603 182.199249,107.952057 183.016708,107.752052 
	C184.501816,107.388710 185.756699,106.084404 186.951828,106.373093 
	C191.423538,107.856468 195.804291,109.796692 200.389572,110.709656 
	C206.365738,111.899567 212.627655,111.744522 218.544144,113.123077 
	C227.773376,115.273499 236.343597,113.164978 245.682388,109.885361 
	C245.266388,112.585258 244.964066,114.547394 244.837128,117.103882 
	C245.020844,118.154922 245.029175,118.611603 245.037506,119.068283 
	C245.037506,119.068283 245.016129,119.007401 244.831543,119.147339 
	C244.436905,119.552559 244.226852,119.817848 244.016800,120.083145 
	C244.016800,120.083145 244.014359,120.013199 243.830658,120.150223 
	C243.434723,120.553421 243.222504,120.819595 243.010284,121.085770 
	C242.974640,121.421417 242.815048,121.680801 242.089859,122.070572 
	C241.437668,122.543480 241.227142,122.809753 241.016617,123.076035 
	C241.016617,123.076035 241.006439,123.012939 240.681595,123.028564 
	C237.631714,123.648720 235.207596,124.509850 236.019669,128.130478 
	C233.899582,130.345490 231.779495,132.560516 229.357941,134.907089 
	C229.213089,131.967239 229.369690,128.895813 229.553497,125.290749 
	C227.416794,126.259453 225.702454,126.836792 224.194977,127.754097 
	C217.004608,132.129456 209.344864,129.777374 201.930450,129.117599 
	C193.279388,128.347794 184.672272,126.917953 176.107834,125.421173 
	C172.576706,124.804062 169.206360,123.266869 165.381439,122.074104 
	C165.000000,122.000038 164.996353,121.997795 164.996353,121.997795 
	C164.996353,121.997795 165.006668,121.504646 165.078903,121.217651 
	C165.151138,120.930664 165.158447,120.743622 165.158447,120.743622 
	C165.158447,120.743622 164.987885,120.982834 164.987885,120.982834 
	C164.618179,120.981384 164.248459,120.979942 163.602173,120.963776 
	C168.616318,115.961128 173.907043,110.973206 179.581177,105.942947 
z"/>
<path fill="#77D4C6" opacity="1.000000" stroke="none" 
	d="
M295.830200,188.064423 
	C295.874481,188.488297 295.918732,188.912170 295.700623,189.987976 
	C295.284576,192.756134 295.130951,194.872330 294.975006,197.441467 
	C294.646423,201.929810 294.320160,205.965210 293.583435,210.001678 
	C290.320129,210.733917 287.309540,211.107361 284.651459,212.279953 
	C280.652924,214.043823 277.028778,214.426895 272.752228,212.838226 
	C270.531464,212.013229 267.265259,212.677872 264.948639,213.725250 
	C260.782715,215.608749 256.970612,216.752991 252.175430,215.852814 
	C249.318527,215.316498 245.957809,217.261551 242.874115,218.248932 
	C241.841125,218.579681 240.964478,219.398804 240.014267,219.526367 
	C240.012482,210.704758 240.012817,202.351456 240.438385,193.990585 
	C250.055038,193.008499 259.244568,192.015213 268.440308,191.083405 
	C269.580872,190.967834 270.798920,190.997055 271.905640,191.267700 
	C279.725250,193.179855 287.039581,191.864258 294.296570,188.005371 
	C295.012360,188.029648 295.421295,188.047043 295.830200,188.064423 
z"/>
<path fill="#50B4CF" opacity="1.000000" stroke="none" 
	d="
M24.011158,60.993790 
	C26.821383,63.336205 29.612049,65.702911 32.461540,67.996544 
	C32.924004,68.368790 33.708832,68.692070 34.240578,68.573029 
	C40.397934,67.194618 46.919968,66.592331 52.585423,64.074455 
	C60.575954,60.523262 68.911346,59.810444 77.253906,59.221260 
	C80.693184,58.978367 84.315407,61.079304 87.826073,62.202782 
	C89.464508,62.727112 91.035484,63.462231 93.302444,64.367538 
	C93.187691,62.252491 93.119728,60.999817 93.046188,59.394726 
	C98.337196,64.439651 103.633759,69.836990 108.866455,75.896996 
	C106.365021,76.334320 103.909370,76.221123 101.498131,75.832420 
	C100.426155,75.659607 99.400459,74.445503 98.427574,74.532227 
	C91.061890,75.188766 83.669052,75.766525 76.374870,76.932877 
	C69.741699,77.993553 64.061104,83.457825 56.579647,81.147774 
	C55.394905,80.781967 53.784286,82.014893 52.328835,82.247200 
	C50.741329,82.500587 49.104633,82.529099 47.490467,82.516502 
	C42.748379,82.479515 37.968788,82.670418 34.949432,77.749146 
	C34.549816,77.097801 32.472984,77.475479 31.172911,77.376587 
	C31.172911,77.376587 31.208366,77.193573 31.058514,77.000473 
	C30.582481,76.542816 30.256302,76.278267 29.930120,76.013718 
	C29.930120,76.013718 29.995089,76.009865 29.856312,75.825577 
	C29.454308,75.433372 29.191078,75.225456 28.927849,75.017540 
	C28.927849,75.017540 28.991863,75.007988 28.987692,74.656387 
	C28.974297,73.550125 28.965073,72.795448 29.080685,71.775238 
	C28.618601,68.605812 28.116047,65.622437 24.020779,65.597694 
	C24.011839,63.784176 24.011497,62.388981 24.011158,60.993790 
z"/>
<path fill="#54B8CF" opacity="1.000000" stroke="none" 
	d="
M268.013397,92.998505 
	C267.305298,93.435318 266.499023,94.355339 265.904236,94.234489 
	C259.686005,92.971077 254.446060,96.929665 248.667587,97.344460 
	C244.336121,97.655396 239.895721,96.359436 235.496750,95.838829 
	C226.468246,94.770348 217.433548,93.754379 208.404510,92.690384 
	C205.358704,92.331467 202.278305,92.079498 199.307663,91.379829 
	C198.383179,91.162079 197.767456,89.633392 196.969589,88.342369 
	C196.928802,87.979889 196.963806,87.985291 197.157135,87.833572 
	C197.590286,87.477654 197.790680,87.240158 197.951614,86.969376 
	C197.951614,86.969376 197.969742,86.954933 198.295227,86.949036 
	C199.400589,85.942108 200.180435,84.941078 200.960297,83.940048 
	C204.423340,80.370163 207.886368,76.800278 211.681854,73.116730 
	C212.014282,73.003067 212.072388,73.038490 212.057953,73.475296 
	C212.061493,75.572441 211.656143,77.400589 212.227341,78.841660 
	C212.710754,80.061287 214.416748,81.742386 215.421448,81.640419 
	C219.149002,81.262146 222.790451,80.113808 226.503204,79.484703 
	C229.200226,79.027710 231.966721,78.655060 234.688126,78.733650 
	C240.796936,78.910049 246.906448,79.279518 252.996109,79.799500 
	C255.631531,80.024529 258.214600,80.836494 260.829193,81.341660 
	C262.297791,81.625397 264.311157,82.564514 265.173523,81.945930 
	C270.698669,77.982712 276.291687,75.508087 282.988922,79.333450 
	C283.017822,80.129906 283.038635,80.584785 283.059448,81.039658 
	C283.059448,81.039658 283.011719,81.010185 282.726654,81.101242 
	C281.971802,81.810188 281.502014,82.428085 281.032227,83.045990 
	C280.863464,83.325333 280.694733,83.604691 280.085205,84.099754 
	C279.390900,84.525894 279.188721,84.777565 279.037842,85.070488 
	C279.037842,85.070488 279.013763,85.000259 278.735352,85.099251 
	C277.989899,85.822327 277.522858,86.446404 277.055817,87.070488 
	C277.055817,87.070488 277.010651,87.013733 276.838013,87.159515 
	C276.405090,87.516197 276.196014,87.769409 276.038177,88.064934 
	C276.038177,88.064934 276.015869,87.996628 275.705872,88.077049 
	C274.608032,89.111862 273.820221,90.066246 273.032379,91.020630 
	C273.032379,91.020622 273.005524,91.006721 272.665894,91.025192 
	C270.888611,91.695290 269.451019,92.346901 268.013397,92.998505 
z"/>
<path fill="#81DCC5" opacity="1.000000" stroke="none" 
	d="
M24.005344,227.002441 
	C25.154064,227.835175 27.328499,228.731796 27.281269,229.490036 
	C27.019033,233.700104 30.327639,234.269089 32.890625,235.316559 
	C36.384636,236.744507 40.390091,239.210754 43.610756,238.535339 
	C50.075623,237.179535 56.155571,235.887024 62.413097,238.818710 
	C62.637550,238.923874 63.172916,238.763611 63.331684,238.552673 
	C67.570183,232.921204 74.989189,234.748367 80.485718,231.193604 
	C80.802406,238.883270 80.802406,246.729462 80.802406,254.975372 
	C65.349030,254.975372 51.125607,254.975372 36.113640,254.708527 
	C32.890396,254.564835 30.455690,254.688004 28.020985,254.811157 
	C27.265717,254.862167 26.510450,254.913177 25.372295,254.483551 
	C24.289499,250.653412 23.589588,247.303894 22.889677,243.954391 
	C22.934427,239.933319 22.979177,235.912262 23.282316,231.142548 
	C23.695581,229.263428 23.850462,228.132935 24.005344,227.002441 
z"/>
<path fill="#55B7CE" opacity="1.000000" stroke="none" 
	d="
M31.252853,77.573364 
	C32.472984,77.475479 34.549816,77.097801 34.949432,77.749146 
	C37.968788,82.670418 42.748379,82.479515 47.490467,82.516502 
	C49.104633,82.529099 50.741329,82.500587 52.328835,82.247200 
	C53.784286,82.014893 55.394905,80.781967 56.579647,81.147774 
	C64.061104,83.457825 69.741699,77.993553 76.374870,76.932877 
	C83.669052,75.766525 91.061890,75.188766 98.427574,74.532227 
	C99.400459,74.445503 100.426155,75.659607 101.498131,75.832420 
	C103.909370,76.221123 106.365021,76.334320 108.909637,76.255432 
	C111.051353,77.801697 113.079697,79.659210 115.122314,81.500893 
	C117.649345,83.779350 120.188217,86.044678 122.569733,88.822922 
	C119.974274,89.339539 117.512268,89.544411 115.092331,89.311676 
	C111.611137,88.976875 108.104317,87.667648 104.709976,87.958672 
	C99.496445,88.405655 94.373993,89.884094 89.203545,90.876106 
	C86.156235,91.460762 82.955956,91.558975 80.058197,92.555565 
	C70.211365,95.942085 60.482578,98.865608 50.489380,91.233925 
	C50.255871,93.282257 50.096886,94.676865 49.937897,96.071480 
	C44.504372,90.436295 39.070847,84.801109 33.143257,78.808044 
	C32.349586,78.249512 32.049973,78.048859 31.750355,77.848206 
	C31.750355,77.848213 31.332796,77.770134 31.252853,77.573364 
z"/>
<path fill="#6CC9C7" opacity="1.000000" stroke="none" 
	d="
M238.970718,173.903000 
	C238.976776,172.898315 238.982849,171.893616 239.017242,170.207443 
	C239.371033,169.004242 239.696503,168.482529 240.315338,167.812378 
	C244.751526,163.779160 248.894333,159.894409 253.443115,156.001602 
	C267.192413,151.620865 281.806000,153.757446 294.905823,148.456314 
	C294.911896,156.275925 294.888641,163.626266 294.507660,170.961243 
	C291.892975,171.096832 289.617584,171.119263 287.384979,171.439713 
	C285.622711,171.692673 283.908356,172.717361 282.180969,172.697113 
	C275.575623,172.619720 268.969421,172.015060 262.372620,172.129745 
	C259.922333,172.172333 257.493286,173.641647 255.061325,174.479965 
	C252.664215,175.306274 250.316498,176.670547 247.872833,176.864914 
	C244.966461,177.096100 241.980881,176.331680 239.019211,175.649414 
	C238.996094,174.834442 238.983398,174.368713 238.970718,173.903000 
z"/>
<path fill="#74D0C8" opacity="1.000000" stroke="none" 
	d="
M80.788956,174.023911 
	C80.847847,182.038177 80.906738,190.052444 80.535995,198.531586 
	C79.404129,198.997452 78.701897,198.998413 77.977844,198.622375 
	C77.046387,192.681534 72.211563,192.813782 68.432907,192.306564 
	C60.813244,191.283737 53.102730,190.917191 45.423687,190.363190 
	C38.260303,189.846390 31.489201,185.811066 24.025051,187.523193 
	C24.023996,181.700607 24.028612,176.345001 24.457016,170.991455 
	C27.426508,171.702377 29.972210,172.411224 32.517914,173.120071 
	C36.183952,173.905380 40.113621,173.522858 43.923954,174.032532 
	C46.717869,174.406250 49.290375,176.198334 52.074467,176.926697 
	C60.550144,179.144073 68.742416,177.790054 76.767281,174.212219 
	C77.580276,175.355988 78.266769,176.321808 79.172836,177.596527 
	C79.852425,176.094223 80.320694,175.059067 80.788956,174.023911 
z"/>
<path fill="#61C4CC" opacity="1.000000" stroke="none" 
	d="
M94.971298,138.627380 
	C94.999672,138.981827 94.504791,138.991501 93.978973,138.997314 
	C93.268173,139.011108 93.083176,139.019104 92.898186,139.027084 
	C90.989189,137.240463 89.080193,135.453827 87.243622,133.130585 
	C87.871368,130.005951 86.934708,129.732101 84.956985,131.073044 
	C79.363007,125.602531 73.769035,120.132019 68.228073,114.083427 
	C69.187393,113.002144 70.093697,112.498932 71.061455,112.335800 
	C71.947990,114.819878 72.329453,117.516373 75.845612,115.735931 
	C76.326675,115.492348 77.788338,116.326729 78.239807,117.022774 
	C81.146988,121.504944 83.659584,119.971848 86.560524,116.934525 
	C87.452995,116.000092 89.942917,115.209076 90.685539,115.749161 
	C94.211372,118.313393 97.795074,117.846878 101.646103,117.096825 
	C104.556183,116.530022 107.830566,115.556427 110.479042,116.337151 
	C119.587227,119.022049 128.596222,116.311432 137.627304,116.624985 
	C140.482529,116.724121 143.344086,116.640472 147.679199,116.640472 
	C141.425995,110.399422 136.216232,105.199791 131.060745,99.715004 
	C131.415771,98.944962 131.716522,98.460075 132.017258,97.975189 
	C141.106995,106.915192 150.196732,115.855194 159.613541,124.849060 
	C157.710419,128.064346 155.409088,125.561584 153.095688,125.032021 
	C150.129883,124.353111 147.081985,123.144165 144.156982,123.358452 
	C137.835739,123.821526 131.567429,125.026794 125.282745,125.963936 
	C116.646782,127.251701 107.995087,128.451462 99.389618,129.920258 
	C93.390968,130.944092 92.569557,132.726501 94.971298,138.627380 
z"/>
<path fill="#59BBCE" opacity="1.000000" stroke="none" 
	d="
M71.000000,111.995728 
	C70.093697,112.498932 69.187393,113.002144 68.093170,113.765862 
	C62.003117,108.248077 56.100986,102.469780 50.068378,96.381485 
	C50.096886,94.676865 50.255871,93.282257 50.489380,91.233925 
	C60.482578,98.865608 70.211365,95.942085 80.058197,92.555565 
	C82.955956,91.558975 86.156235,91.460762 89.203545,90.876106 
	C94.373993,89.884094 99.496445,88.405655 104.709976,87.958672 
	C108.104317,87.667648 111.611137,88.976875 115.092331,89.311676 
	C117.512268,89.544411 119.974274,89.339539 122.713951,89.146072 
	C125.933479,91.758461 128.856552,94.554947 131.898438,97.663315 
	C131.716522,98.460075 131.415771,98.944962 130.687073,99.693680 
	C126.383850,98.355934 122.590378,96.019913 118.264877,98.793823 
	C117.933548,99.006310 117.272873,98.822044 116.804604,98.686424 
	C110.977112,96.998596 105.719292,98.527725 100.487289,101.153984 
	C98.348045,102.227806 95.781952,102.512253 93.376083,102.981728 
	C87.677071,104.093819 81.229294,102.784149 77.514778,107.955582 
	C75.512291,107.386223 72.954628,106.308601 72.741379,106.658745 
	C71.794037,108.214302 71.518486,110.178993 71.000000,111.995728 
z"/>
<path fill="#6FCCC9" opacity="1.000000" stroke="none" 
	d="
M80.862808,173.615845 
	C80.320694,175.059067 79.852425,176.094223 79.172836,177.596527 
	C78.266769,176.321808 77.580276,175.355988 76.767281,174.212219 
	C68.742416,177.790054 60.550144,179.144073 52.074467,176.926697 
	C49.290375,176.198334 46.717869,174.406250 43.923954,174.032532 
	C40.113621,173.522858 36.183952,173.905380 32.517914,173.120071 
	C29.972210,172.411224 27.426508,171.702377 24.448883,170.525787 
	C24.027136,165.035706 24.037312,160.013351 24.434879,154.999115 
	C29.294365,156.603836 33.652634,158.861679 38.262947,159.655304 
	C47.061615,161.169907 56.003963,161.849854 64.833145,162.870102 
	C65.329338,160.552231 65.721130,158.722061 66.392929,157.070679 
	C71.392448,161.465607 76.111946,165.681717 80.831444,169.897842 
	C80.866516,171.001160 80.901596,172.104477 80.862808,173.615845 
z"/>
<path fill="#66C3C9" opacity="1.000000" stroke="none" 
	d="
M294.876556,147.987045 
	C281.806000,153.757446 267.192413,151.620865 253.580627,155.736389 
	C253.878723,154.661438 254.445297,153.843689 255.297607,152.855072 
	C260.719971,147.456116 265.856628,142.227982 271.280945,136.833023 
	C276.403015,131.785294 281.237457,126.904404 286.321533,121.812347 
	C289.317566,119.083412 292.064026,116.565636 294.810486,114.047867 
	C294.871979,115.080627 294.933441,116.113396 295.006165,118.007217 
	C294.970490,128.574524 294.923523,138.280792 294.876556,147.987045 
z"/>
<path fill="#7AD5C4" opacity="1.000000" stroke="none" 
	d="
M77.999664,198.999390 
	C78.701897,198.998413 79.404129,198.997452 80.457474,198.993835 
	C80.856560,205.016785 80.904518,211.042374 80.884140,217.530975 
	C74.379570,213.317001 67.137680,213.483276 59.593437,213.790222 
	C51.838688,214.105743 43.967930,213.761642 36.286404,212.702209 
	C32.777977,212.218323 29.973721,208.293320 25.220146,208.771805 
	C24.220985,207.286545 23.701221,206.149124 23.181461,205.011688 
	C23.126741,202.959885 23.072021,200.908066 23.272352,198.131042 
	C23.689943,196.271362 23.852484,195.136917 24.265865,194.227402 
	C26.400547,197.004913 28.213123,199.615372 30.210510,202.075790 
	C30.830902,202.839981 32.111309,203.826416 32.820873,203.647232 
	C44.719547,200.642288 56.969444,206.340805 68.805695,202.165253 
	C69.520554,201.913071 70.495178,202.077698 71.255760,202.329666 
	C74.644302,203.452179 76.673927,201.974609 77.999664,198.999390 
z"/>
<path fill="#84D8C7" opacity="1.000000" stroke="none" 
	d="
M238.599777,174.138580 
	C238.983398,174.368713 238.996094,174.834442 239.008972,176.102325 
	C239.343826,182.602371 239.678482,188.300278 240.013153,193.998169 
	C240.012817,202.351456 240.012482,210.704758 240.010010,219.995667 
	C240.007919,229.386765 239.932846,237.841553 240.079895,246.292450 
	C240.105255,247.749146 241.000702,250.404099 241.619003,250.441467 
	C245.846466,250.697021 251.253998,251.960724 254.068451,249.890839 
	C257.624908,247.275238 260.792938,247.156372 264.494995,246.984848 
	C270.600494,246.701935 276.717224,246.475983 282.792664,245.863419 
	C284.256104,245.715866 285.669159,244.259308 286.942291,243.207352 
	C289.356354,241.212723 291.652435,239.075287 294.001099,237.465088 
	C294.018402,243.318405 294.032166,248.703781 294.045929,254.089157 
	C294.045929,254.089157 294.017700,254.023880 293.596375,254.024429 
	C289.789795,254.285339 286.404480,254.545715 283.019196,254.806091 
	C269.405426,254.868912 255.791260,254.890594 242.178238,255.027878 
	C239.321548,255.056702 237.948105,254.250839 237.967255,251.083939 
	C238.121918,225.514404 238.157150,199.944168 238.599777,174.138580 
z"/>
<path fill="#37989E" opacity="1.000000" stroke="none" 
	d="
M53.797894,124.569901 
	C59.766186,130.492859 65.734482,136.415833 71.489944,142.681396 
	C65.432976,143.067383 59.588829,143.110764 53.448372,143.041122 
	C51.772373,141.949615 50.392689,140.971161 48.851425,139.699753 
	C43.825687,134.263489 38.961529,129.120163 34.407921,123.817329 
	C39.368912,120.800056 43.888428,118.628441 48.738312,123.616104 
	C49.716858,124.622452 52.075520,124.286819 53.797894,124.569901 
z"/>
<path fill="#328D9C" opacity="1.000000" stroke="none" 
	d="
M53.601166,124.283867 
	C52.075520,124.286819 49.716858,124.622452 48.738312,123.616104 
	C43.888428,118.628441 39.368912,120.800056 34.115959,123.646927 
	C30.323532,120.726280 27.133612,117.816528 23.943691,114.906776 
	C22.137730,108.652710 22.976871,102.482216 23.479462,96.301086 
	C24.030064,96.104759 24.580664,95.908432 25.131264,95.712105 
	C34.555656,105.140678 43.980045,114.569260 53.601166,124.283867 
z"/>
<path fill="#65C1C8" opacity="1.000000" stroke="none" 
	d="
M23.614773,115.122620 
	C27.133612,117.816528 30.323532,120.726280 33.805412,123.806442 
	C38.961529,129.120163 43.825687,134.263489 48.524254,139.813141 
	C46.399029,140.864029 44.430187,142.078995 42.481468,142.047531 
	C36.338631,141.948380 30.203341,141.381668 24.054279,140.527802 
	C23.767073,133.378128 23.490715,126.696548 23.214359,120.014969 
	C23.238192,118.456131 23.262024,116.897301 23.614773,115.122620 
z"/>
<path fill="#3FA0A0" opacity="1.000000" stroke="none" 
	d="
M53.744686,143.154144 
	C59.588829,143.110764 65.432976,143.067383 71.658569,142.989532 
	C82.915550,148.922836 81.210571,159.221939 80.919861,169.450760 
	C76.111946,165.681717 71.392448,161.465607 66.211731,156.794373 
	C61.748581,151.944229 57.746632,147.549194 53.744686,143.154144 
z"/>
<path fill="#3994A3" opacity="1.000000" stroke="none" 
	d="
M286.071930,122.023514 
	C281.237457,126.904404 276.403015,131.785294 270.827454,136.832611 
	C264.669769,138.118240 259.271942,139.346054 253.824295,140.284576 
	C252.359085,140.536987 250.742310,139.909653 249.195099,139.686172 
	C249.195099,139.686172 249.247620,139.409668 249.727173,139.456482 
	C250.792862,138.664749 251.378983,137.826233 251.965103,136.987701 
	C251.965103,136.987701 251.986572,136.991486 252.175537,136.842834 
	C252.604797,136.487640 252.804718,136.247482 252.964233,135.973709 
	C253.136948,135.695236 253.309662,135.416763 253.913223,134.909668 
	C254.591812,134.473206 254.796097,134.229004 254.956940,133.948425 
	C255.018616,133.600677 255.196579,133.329163 255.939362,132.898178 
	C256.627258,132.403107 256.866669,132.143707 257.106049,131.884323 
	C264.193146,124.662376 271.280273,117.440430 278.680847,110.516762 
	C281.124359,118.248840 273.808258,118.616615 270.282684,122.640312 
	C272.953247,123.645340 275.460114,124.034569 277.900574,123.782013 
	C280.655518,123.496910 283.350739,122.634720 286.071930,122.023514 
z"/>
<path fill="#56B1C9" opacity="1.000000" stroke="none" 
	d="
M283.376160,80.911224 
	C283.038635,80.584785 283.017822,80.129906 282.995056,79.085686 
	C282.993042,78.496338 283.002441,78.000542 283.192810,77.859589 
	C283.624054,77.510185 283.827759,77.270180 284.148438,76.695755 
	C286.867859,73.931572 289.433075,71.470253 291.998291,69.008934 
	C293.127319,67.663162 294.015106,65.927727 295.433594,65.049538 
	C298.792786,62.969875 302.253052,60.263298 305.951752,59.723396 
	C310.511292,59.057827 313.609436,57.663177 313.431122,53.313530 
	C313.310120,50.360516 314.309296,48.941677 316.589569,46.912670 
	C318.537354,45.179550 318.278107,40.966129 318.994507,37.425827 
	C320.430145,30.536486 321.866394,24.071146 323.515076,17.318401 
	C322.670990,24.950363 321.698608,32.882092 320.536652,40.785946 
	C319.103149,50.537449 317.551727,60.272350 315.942444,69.996422 
	C315.722260,71.326920 314.874664,72.553581 314.317566,73.828323 
	C313.066345,73.215080 311.538025,72.874695 310.615417,71.937843 
	C307.751617,69.029839 305.117828,65.895294 301.823975,62.209961 
	C295.594543,68.591171 289.643707,74.686989 283.376160,80.911224 
z"/>
<path fill="#358FA8" opacity="1.000000" stroke="none" 
	d="
M286.321533,121.812347 
	C283.350739,122.634720 280.655518,123.496910 277.900574,123.782013 
	C275.460114,124.034569 272.953247,123.645340 270.282684,122.640312 
	C273.808258,118.616615 281.124359,118.248840 278.989349,110.384644 
	C279.036987,109.623215 279.200287,109.361160 280.059631,109.055550 
	C281.848755,107.471924 283.052490,106.000824 284.256195,104.529724 
	C284.256195,104.529716 284.315521,104.312332 284.791168,104.413467 
	C286.803345,103.982918 288.685791,103.838127 289.803925,102.838470 
	C292.082916,100.800949 293.889069,101.172829 295.837097,103.046089 
	C295.542847,106.418610 295.248627,109.791130 294.882446,113.605759 
	C292.064026,116.565636 289.317566,119.083412 286.321533,121.812347 
z"/>
<path fill="#3C99A1" opacity="1.000000" stroke="none" 
	d="
M248.930344,139.827057 
	C250.742310,139.909653 252.359085,140.536987 253.824295,140.284576 
	C259.271942,139.346054 264.669769,138.118240 270.539795,136.999451 
	C265.856628,142.227982 260.719971,147.456116 255.142532,152.546326 
	C250.734955,150.123016 246.614105,148.652206 241.911880,149.710922 
	C241.578323,148.925140 241.293274,148.426682 241.008240,147.928207 
	C243.560684,145.274796 246.113144,142.621368 248.930344,139.827057 
M250.528229,142.502014 
	C250.528229,142.502014 250.486557,142.517975 250.528229,142.502014 
z"/>
<path fill="#74D0C8" opacity="1.000000" stroke="none" 
	d="
M152.995010,194.003174 
	C156.109329,189.996063 160.734467,188.399658 165.142532,186.507050 
	C166.296417,186.011642 167.749527,185.684723 168.941452,185.916611 
	C171.405960,186.396088 173.787247,187.303207 176.630875,188.055786 
	C170.970581,196.085205 162.464676,196.744629 153.215775,195.205414 
	C152.988724,194.378128 152.991867,194.190659 152.995010,194.003174 
z"/>
<path fill="#93CEC3" opacity="1.000000" stroke="none" 
	d="
M294.476440,254.026459 
	C294.032166,248.703781 294.018402,243.318405 294.002808,236.996765 
	C293.998627,227.373856 293.996246,218.687241 293.993896,210.000610 
	C294.320160,205.965210 294.646423,201.929810 295.189880,197.449127 
	C295.407135,197.003830 295.836395,197.018631 295.836395,197.018631 
	C295.884613,215.044815 295.949371,233.071030 295.935028,251.097168 
	C295.934265,252.052963 295.264984,253.008255 294.476440,254.026459 
z"/>
<path fill="#84C1C1" opacity="1.000000" stroke="none" 
	d="
M23.138458,120.477783 
	C23.490715,126.696548 23.767073,133.378128 24.037395,140.992798 
	C24.036737,146.280930 24.042112,150.635971 24.047485,154.990997 
	C24.037312,160.013351 24.027136,165.035706 24.025095,170.523712 
	C24.028612,176.345001 24.023996,181.700607 24.015530,187.952820 
	C24.012793,190.567093 24.013908,192.284790 24.015024,194.002472 
	C23.852484,195.136917 23.689943,196.271362 23.341555,197.695831 
	C23.124657,172.304092 23.093607,146.622345 23.138458,120.477783 
z"/>
<path fill="#89BBBC" opacity="1.000000" stroke="none" 
	d="
M294.905823,148.456314 
	C294.923523,138.280792 294.970490,128.574524 295.029724,118.395317 
	C295.353851,119.444260 295.932953,120.965393 295.937317,122.488167 
	C295.999054,144.033493 295.982758,165.579041 295.907776,187.594482 
	C295.421295,188.047043 295.012360,188.029648 294.305603,187.574005 
	C294.293610,181.749374 294.579529,176.362991 294.865417,170.976608 
	C294.888641,163.626266 294.911896,156.275925 294.905823,148.456314 
z"/>
<path fill="#60ACC0" opacity="1.000000" stroke="none" 
	d="
M24.006712,60.533638 
	C24.011497,62.388981 24.011839,63.784176 24.079708,65.926926 
	C25.750107,68.463249 27.352978,70.252014 28.955849,72.040779 
	C28.965073,72.795448 28.974297,73.550125 28.967617,74.681778 
	C23.710466,71.680870 21.112123,67.129311 21.930222,60.674717 
	C22.564848,55.667664 22.465996,50.564114 23.176493,45.572243 
	C23.407204,43.951298 25.166252,42.547886 26.602522,40.994102 
	C23.323217,46.905575 24.003340,53.542526 24.006712,60.533638 
z"/>
<path fill="#418492" opacity="1.000000" stroke="none" 
	d="
M295.900208,102.610977 
	C293.889069,101.172829 292.082916,100.800949 289.803925,102.838470 
	C288.685791,103.838127 286.803345,103.982918 284.899963,104.384171 
	C287.762054,100.998726 290.990997,97.743721 294.219940,94.488708 
	C294.801056,94.735222 295.382172,94.981728 295.963287,95.228241 
	C295.963287,97.544113 295.963287,99.859993 295.900208,102.610977 
z"/>
<path fill="#5C9FA1" opacity="1.000000" stroke="none" 
	d="
M240.663483,148.103485 
	C241.293274,148.426682 241.578323,148.925140 241.601456,149.943848 
	C240.900360,156.296341 240.461151,162.128586 240.021957,167.960815 
	C239.696503,168.482529 239.371033,169.004242 238.983948,169.831955 
	C238.067245,162.767197 235.943695,155.315399 240.663483,148.103485 
z"/>
<path fill="#60ACC0" opacity="1.000000" stroke="none" 
	d="
M67.810455,39.630013 
	C54.988796,39.996330 41.936466,39.992489 28.411461,39.976845 
	C28.459967,39.666851 28.981434,39.108028 29.502270,39.108616 
	C42.194817,39.122898 54.887291,39.196720 67.810455,39.630013 
z"/>
<path fill="#74D0C8" opacity="1.000000" stroke="none" 
	d="
M145.002136,188.997528 
	C149.239380,185.981720 150.287933,188.805023 150.605164,192.632874 
	C149.443420,193.008713 148.664551,193.018036 147.885696,193.027374 
	C147.885696,193.027374 147.452774,192.963043 147.212555,192.573502 
	C146.315613,191.121811 145.658875,190.059677 145.002136,188.997528 
z"/>
<path fill="#84D8C7" opacity="1.000000" stroke="none" 
	d="
M22.540628,244.162170 
	C23.589588,247.303894 24.289499,250.653412 25.000153,254.406555 
	C20.749357,253.654129 24.097572,249.415466 22.008995,247.263519 
	C21.556463,246.797256 22.104435,245.359970 22.540628,244.162170 
z"/>
<path fill="#6DB4C0" opacity="1.000000" stroke="none" 
	d="
M251.356934,112.946075 
	C251.131363,109.587959 252.973389,107.641411 256.722809,107.029449 
	C255.287949,108.946922 253.480560,110.881264 251.356934,112.946075 
z"/>
<path fill="#6DB4C0" opacity="1.000000" stroke="none" 
	d="
M236.324326,127.996574 
	C235.207596,124.509850 237.631714,123.648720 240.710449,123.042313 
	C239.585754,124.647850 238.107376,126.255257 236.324326,127.996574 
z"/>
<path fill="#56B1C9" opacity="1.000000" stroke="none" 
	d="
M268.015259,93.348518 
	C269.451019,92.346901 270.888611,91.695290 272.673096,91.038620 
	C271.601959,92.360596 270.183960,93.687622 268.406006,95.056290 
	C268.036469,94.631462 268.026794,94.164993 268.015259,93.348518 
z"/>
<path fill="#93CEC3" opacity="1.000000" stroke="none" 
	d="
M283.466614,254.874359 
	C286.404480,254.545715 289.789795,254.285339 293.630066,254.035858 
	C290.694733,254.345367 287.304382,254.643997 283.466614,254.874359 
z"/>
<path fill="#84D8C7" opacity="1.000000" stroke="none" 
	d="
M23.108929,205.383392 
	C23.701221,206.149124 24.220985,207.286545 24.872906,208.711914 
	C24.512268,210.150650 24.019474,211.301468 23.346775,212.714996 
	C23.123379,210.570160 23.079889,208.162613 23.108929,205.383392 
z"/>
<path fill="#418492" opacity="1.000000" stroke="none" 
	d="
M284.006836,104.701294 
	C283.052490,106.000824 281.848755,107.471924 280.278687,108.965881 
	C281.194061,107.616791 282.475769,106.244827 284.006836,104.701294 
z"/>
<path fill="#84D8C7" opacity="1.000000" stroke="none" 
	d="
M28.457455,254.883179 
	C30.455690,254.688004 32.890396,254.564835 35.649338,254.628510 
	C33.613693,254.861969 31.253809,254.908569 28.457455,254.883179 
z"/>
<path fill="#84C1C1" opacity="1.000000" stroke="none" 
	d="
M97.023369,143.337616 
	C98.256607,144.140167 99.599319,145.249298 100.953743,146.717758 
	C99.687912,145.932785 98.410378,144.788483 97.023369,143.337616 
z"/>
<path fill="#81C8C0" opacity="1.000000" stroke="none" 
	d="
M144.655792,188.999161 
	C145.658875,190.059677 146.315613,191.121811 147.005005,192.504089 
	C145.740402,191.766815 144.443115,190.709412 143.035278,189.346802 
	C143.386292,189.027985 143.847855,189.014389 144.655792,188.999161 
z"/>
<path fill="#62C8CC" opacity="1.000000" stroke="none" 
	d="
M85.056259,131.344635 
	C86.934708,129.732101 87.871368,130.005951 87.118042,132.822266 
	C86.331863,132.572449 85.743698,132.094345 85.056259,131.344635 
z"/>
<path fill="#89BBBC" opacity="1.000000" stroke="none" 
	d="
M295.915649,196.584351 
	C295.836395,197.018631 295.407135,197.003830 295.192261,196.996185 
	C295.130951,194.872330 295.284576,192.756134 295.634460,190.302399 
	C295.885437,192.026596 295.940186,194.088318 295.915649,196.584351 
z"/>
<path fill="#56B1C9" opacity="1.000000" stroke="none" 
	d="
M273.369934,90.966370 
	C273.820221,90.066246 274.608032,89.111862 275.726990,88.106583 
	C275.274597,89.007828 274.491058,89.959969 273.369934,90.966370 
z"/>
<path fill="#59BECE" opacity="1.000000" stroke="none" 
	d="
M200.672546,84.055283 
	C200.180435,84.941078 199.400589,85.942108 198.299957,86.938461 
	C198.781052,86.012688 199.582916,85.091606 200.672546,84.055283 
z"/>
<path fill="#54B8CF" opacity="1.000000" stroke="none" 
	d="
M213.952408,70.956238 
	C214.759247,70.027359 215.566071,69.098473 216.705170,68.103165 
	C217.037445,68.036743 217.117264,68.116798 217.057709,68.456650 
	C216.011398,69.553055 215.024628,70.309608 214.018433,71.037170 
	C213.999023,71.008179 213.952408,70.956238 213.952408,70.956238 
z"/>
<path fill="#81C8C0" opacity="1.000000" stroke="none" 
	d="
M114.009476,160.354034 
	C114.903069,160.825714 115.913315,161.590363 116.940643,162.718292 
	C116.013855,162.270050 115.069992,161.458542 114.009476,160.354034 
z"/>
<path fill="#81C8C0" opacity="1.000000" stroke="none" 
	d="
M127.027306,173.337845 
	C127.919754,173.822922 128.914017,174.607071 129.919968,175.755859 
	C128.997482,175.292648 128.063293,174.464783 127.027306,173.337845 
z"/>
<path fill="#81C8C0" opacity="1.000000" stroke="none" 
	d="
M148.048874,193.353424 
	C148.664551,193.018036 149.443420,193.008713 150.611603,193.000793 
	C151.478577,193.298767 151.956207,193.595322 152.714432,193.947540 
	C152.991867,194.190659 152.988724,194.378128 152.979492,194.847031 
	C151.386292,194.645462 149.799164,194.162476 148.048874,193.353424 
z"/>
<path fill="#3C99A1" opacity="1.000000" stroke="none" 
	d="
M251.694275,137.093475 
	C251.378983,137.826233 250.792862,138.664749 249.861633,139.414886 
	C250.152161,138.617416 250.787811,137.908325 251.694275,137.093475 
z"/>
<path fill="#6DD0CA" opacity="1.000000" stroke="none" 
	d="
M213.395020,151.016769 
	C213.523117,150.436371 213.991287,149.818451 214.760620,149.128784 
	C214.619553,149.697784 214.177338,150.338516 213.395020,151.016769 
z"/>
<path fill="#84D8C7" opacity="1.000000" stroke="none" 
	d="
M23.796402,226.999481 
	C23.850462,228.132935 23.695581,229.263428 23.356792,230.683380 
	C23.124029,229.908783 23.075176,228.844757 23.097950,227.386017 
	C23.169575,226.991318 23.587461,226.996536 23.796402,226.999481 
z"/>
<path fill="#56B1C9" opacity="1.000000" stroke="none" 
	d="
M281.369202,83.004463 
	C281.502014,82.428085 281.971802,81.810188 282.743530,81.123619 
	C282.598999,81.690941 282.152557,82.326942 281.369202,83.004463 
z"/>
<path fill="#56B1C9" opacity="1.000000" stroke="none" 
	d="
M277.388916,87.023743 
	C277.522858,86.446404 277.989899,85.822327 278.759949,85.127151 
	C278.615967,85.696373 278.168976,86.336685 277.388916,87.023743 
z"/>
<path fill="#6DB4C0" opacity="1.000000" stroke="none" 
	d="
M245.379074,119.026016 
	C245.029175,118.611603 245.020844,118.154922 245.018097,117.356201 
	C245.480606,117.014557 245.937546,117.014961 246.737442,117.029709 
	C246.627136,117.690620 246.173889,118.337189 245.379074,119.026016 
z"/>
<path fill="#6DB4C0" opacity="1.000000" stroke="none" 
	d="
M249.369019,115.025803 
	C249.506210,114.439819 249.986221,113.808144 250.774689,113.104904 
	C250.626038,113.682266 250.168930,114.331184 249.369019,115.025803 
z"/>
<path fill="#84C1C1" opacity="1.000000" stroke="none" 
	d="
M95.001251,141.304398 
	C95.267204,141.258926 95.608154,141.469238 95.958649,141.878891 
	C95.670876,141.905548 95.373558,141.732864 95.001251,141.304398 
z"/>
<path fill="#6DD0CA" opacity="1.000000" stroke="none" 
	d="
M219.340485,144.924484 
	C219.191925,144.510529 219.336029,143.985336 219.648926,143.242035 
	C219.756195,143.620377 219.694656,144.216812 219.340485,144.924484 
z"/>
<path fill="#60ACC0" opacity="1.000000" stroke="none" 
	d="
M70.900505,40.713665 
	C70.501724,40.851990 69.973770,40.708340 69.222832,40.400440 
	C69.590340,40.301357 70.180840,40.366524 70.900505,40.713665 
z"/>
<path fill="#6DB4C0" opacity="1.000000" stroke="none" 
	d="
M258.256744,106.796036 
	C258.180878,106.308327 258.423004,105.822754 258.887207,105.174141 
	C258.931091,105.606789 258.752930,106.202477 258.256744,106.796036 
z"/>
<path fill="#60ACC0" opacity="1.000000" stroke="none" 
	d="
M72.927841,41.705750 
	C72.502174,41.795975 71.954964,41.593243 71.200668,41.178825 
	C71.597816,41.115685 72.202057,41.264236 72.927841,41.705750 
z"/>
<path fill="#81C8C0" opacity="1.000000" stroke="none" 
	d="
M118.971085,165.280884 
	C119.154137,165.233002 119.425499,165.450668 119.845772,165.885040 
	C119.682922,165.916656 119.371162,165.731552 118.971085,165.280884 
z"/>
<path fill="#81C8C0" opacity="1.000000" stroke="none" 
	d="
M136.965897,183.283081 
	C137.153961,183.233780 137.424911,183.454681 137.843796,183.893936 
	C137.677414,183.925949 137.363098,183.739624 136.965897,183.283081 
z"/>
<path fill="#81C8C0" opacity="1.000000" stroke="none" 
	d="
M125.998886,172.268875 
	C126.177078,172.225952 126.441467,172.443390 126.850075,172.875168 
	C126.691223,172.902756 126.388153,172.716003 125.998886,172.268875 
z"/>
<path fill="#81C8C0" opacity="1.000000" stroke="none" 
	d="
M124.982910,171.274048 
	C125.164154,171.226852 125.431038,171.443451 125.845795,171.872955 
	C125.685295,171.903198 125.376923,171.720520 124.982910,171.274048 
z"/>
<path fill="#81C8C0" opacity="1.000000" stroke="none" 
	d="
M119.979706,166.276138 
	C120.166069,166.228210 120.433037,166.448685 120.847214,166.884918 
	C120.683044,166.915283 120.371674,166.729919 119.979706,166.276138 
z"/>
<path fill="#81C8C0" opacity="1.000000" stroke="none" 
	d="
M120.979019,167.276794 
	C121.166756,167.227966 121.433990,167.448196 121.847580,167.884735 
	C121.682137,167.916000 121.370331,167.730911 120.979019,167.276794 
z"/>
<path fill="#81C8C0" opacity="1.000000" stroke="none" 
	d="
M123.976440,170.274063 
	C124.155037,170.230972 124.424332,170.451752 124.843575,170.888245 
	C124.684723,170.915298 124.375931,170.726608 123.976440,170.274063 
z"/>
<path fill="#81C8C0" opacity="1.000000" stroke="none" 
	d="
M122.969398,169.280670 
	C123.158310,169.232239 123.426720,169.454849 123.842407,169.895721 
	C123.676094,169.926559 123.362495,169.739151 122.969398,169.280670 
z"/>
<path fill="#81C8C0" opacity="1.000000" stroke="none" 
	d="
M121.975441,168.279526 
	C122.167091,168.230118 122.433861,168.452744 122.845566,168.894043 
	C122.677193,168.925659 122.363876,168.738617 121.975441,168.279526 
z"/>
<path fill="#6DD0CA" opacity="1.000000" stroke="none" 
	d="
M218.274078,145.958771 
	C218.199844,145.760574 218.409882,145.519012 218.852310,145.168060 
	C218.871902,145.311798 218.696442,145.597382 218.274078,145.958771 
z"/>
<path fill="#81C8C0" opacity="1.000000" stroke="none" 
	d="
M129.950928,176.291565 
	C130.134232,176.244415 130.409332,176.466019 130.837708,176.905579 
	C130.674896,176.935776 130.358795,176.748062 129.950928,176.291565 
z"/>
<path fill="#81C8C0" opacity="1.000000" stroke="none" 
	d="
M130.961060,177.284332 
	C131.146729,177.233673 131.420502,177.451340 131.844177,177.886017 
	C131.679123,177.919571 131.364120,177.736099 130.961060,177.284332 
z"/>
<path fill="#81C8C0" opacity="1.000000" stroke="none" 
	d="
M131.980621,178.274353 
	C132.164978,178.229126 132.432022,178.451401 132.846161,178.890732 
	C132.683273,178.919159 132.373291,178.730515 131.980621,178.274353 
z"/>
<path fill="#81C8C0" opacity="1.000000" stroke="none" 
	d="
M132.978058,179.274170 
	C133.161667,179.233994 133.429733,179.461487 133.840042,179.912506 
	C133.675690,179.937973 133.369095,179.739899 132.978058,179.274170 
z"/>
<path fill="#81C8C0" opacity="1.000000" stroke="none" 
	d="
M134.956161,181.288300 
	C135.136597,181.241913 135.412354,181.460358 135.839905,181.897339 
	C135.678284,181.928314 135.364883,181.740723 134.956161,181.288300 
z"/>
<path fill="#81C8C0" opacity="1.000000" stroke="none" 
	d="
M135.972198,182.278473 
	C136.154755,182.234558 136.423935,182.458191 136.842667,182.899353 
	C136.681076,182.926605 136.369949,182.736298 135.972198,182.278473 
z"/>
<path fill="#74D0C8" opacity="1.000000" stroke="none" 
	d="
M181.317520,184.021820 
	C181.166809,183.819641 181.316650,183.559174 181.673859,183.165451 
	C181.746948,183.315857 181.659225,183.626297 181.317520,184.021820 
z"/>
<path fill="#81C8C0" opacity="1.000000" stroke="none" 
	d="
M137.968735,184.281158 
	C138.157990,184.233200 138.427246,184.456589 138.843170,184.899658 
	C138.676132,184.930389 138.362442,184.741455 137.968735,184.281158 
z"/>
<path fill="#81C8C0" opacity="1.000000" stroke="none" 
	d="
M138.964355,185.282730 
	C139.153152,185.234238 139.423126,185.457092 139.840881,185.899109 
	C139.674301,185.930206 139.359894,185.742142 138.964355,185.282730 
z"/>
<path fill="#74D0C8" opacity="1.000000" stroke="none" 
	d="
M179.307816,186.013336 
	C179.210464,185.790237 179.419403,185.538620 179.885193,185.195251 
	C179.915619,185.355377 179.739639,185.649155 179.307816,186.013336 
z"/>
<path fill="#81C8C0" opacity="1.000000" stroke="none" 
	d="
M139.973801,186.274384 
	C140.151459,186.231522 140.421600,186.452087 140.842468,186.888290 
	C140.684219,186.915207 140.375244,186.726486 139.973801,186.274384 
z"/>
<path fill="#81C8C0" opacity="1.000000" stroke="none" 
	d="
M140.983124,187.274551 
	C141.164276,187.228073 141.431000,187.445480 141.845459,187.876266 
	C141.685013,187.905914 141.376862,187.722168 140.983124,187.274551 
z"/>
<path fill="#74D0C8" opacity="1.000000" stroke="none" 
	d="
M177.273651,187.995209 
	C177.188553,187.790619 177.394958,187.539642 177.843536,187.185455 
	C177.869995,187.336380 177.696472,187.625244 177.273651,187.995209 
z"/>
<path fill="#81C8C0" opacity="1.000000" stroke="none" 
	d="
M141.995544,188.270203 
	C142.174271,188.226898 142.438950,188.444901 142.848907,188.877045 
	C142.689972,188.904602 142.385742,188.718048 141.995544,188.270203 
z"/>
<path fill="#59BECE" opacity="1.000000" stroke="none" 
	d="
M197.707886,87.038391 
	C197.790680,87.240158 197.590286,87.477654 197.160187,87.817833 
	C197.134659,87.671669 197.299423,87.389542 197.707886,87.038391 
z"/>
<path fill="#3C99A1" opacity="1.000000" stroke="none" 
	d="
M252.728973,136.057526 
	C252.804718,136.247482 252.604797,136.487640 252.173950,136.832245 
	C252.024719,136.614670 252.194824,136.338348 252.728973,136.057526 
z"/>
<path fill="#3C99A1" opacity="1.000000" stroke="none" 
	d="
M254.715210,134.029404 
	C254.796097,134.229004 254.591812,134.473206 254.147369,134.817200 
	C254.124939,134.672348 254.299225,134.391357 254.715210,134.029404 
z"/>
<path fill="#3C99A1" opacity="1.000000" stroke="none" 
	d="
M256.838562,131.975204 
	C256.866669,132.143707 256.627258,132.403107 256.173431,132.813171 
	C256.163025,132.664597 256.367065,132.365341 256.838562,131.975204 
z"/>
<path fill="#6DB4C0" opacity="1.000000" stroke="none" 
	d="
M241.277191,122.995667 
	C241.227142,122.809753 241.437668,122.543480 241.866425,122.142868 
	C241.902344,122.310776 241.720062,122.613029 241.277191,122.995667 
z"/>
<path fill="#6DB4C0" opacity="1.000000" stroke="none" 
	d="
M243.271057,121.004181 
	C243.222504,120.819595 243.434723,120.553421 243.865631,120.151115 
	C243.900162,120.317513 243.716003,120.620049 243.271057,121.004181 
z"/>
<path fill="#6DB4C0" opacity="1.000000" stroke="none" 
	d="
M244.276306,120.001694 
	C244.226852,119.817848 244.436905,119.552559 244.863556,119.151321 
	C244.898697,119.317001 244.717255,119.618629 244.276306,120.001694 
z"/>
<path fill="#6DB4C0" opacity="1.000000" stroke="none" 
	d="
M247.276886,117.010078 
	C247.227524,116.824501 247.441910,116.558189 247.872742,116.151100 
	C247.906342,116.316666 247.723495,116.623001 247.276886,117.010078 
z"/>
<path fill="#6DB4C0" opacity="1.000000" stroke="none" 
	d="
M248.269485,116.001434 
	C248.224060,115.823372 248.436188,115.556641 248.863831,115.149231 
	C248.895233,115.309959 248.711136,115.611366 248.269485,116.001434 
z"/>
<path fill="#56B1C9" opacity="1.000000" stroke="none" 
	d="
M276.291809,87.989166 
	C276.196014,87.769409 276.405090,87.516197 276.872864,87.169655 
	C276.902008,87.327148 276.723694,87.620277 276.291809,87.989166 
z"/>
<path fill="#84C1C1" opacity="1.000000" stroke="none" 
	d="
M92.989220,139.280945 
	C93.083176,139.019104 93.268173,139.011108 93.731506,139.000488 
	C94.006454,139.175705 94.003052,139.353561 93.990318,139.798523 
	C93.680740,139.888702 93.380493,139.711746 92.989220,139.280945 
z"/>
<path fill="#56B1C9" opacity="1.000000" stroke="none" 
	d="
M279.287354,84.994461 
	C279.188721,84.777565 279.390900,84.525894 279.847900,84.184212 
	C279.879883,84.341454 279.708374,84.629944 279.287354,84.994461 
z"/>
<path fill="#60ACC0" opacity="1.000000" stroke="none" 
	d="
M31.871355,78.131119 
	C32.049973,78.048859 32.349586,78.249512 32.835434,78.642944 
	C32.678562,78.695168 32.335457,78.554604 31.871355,78.131119 
z"/>
<path fill="#60ACC0" opacity="1.000000" stroke="none" 
	d="
M30.047163,76.333168 
	C30.256302,76.278267 30.582481,76.542816 31.150036,77.018120 
	C30.982344,77.036789 30.573275,76.844704 30.047163,76.333168 
z"/>
<path fill="#60ACC0" opacity="1.000000" stroke="none" 
	d="
M29.010288,75.272865 
	C29.191078,75.225456 29.454308,75.433372 29.850090,75.857513 
	C29.686007,75.891899 29.389368,75.710045 29.010288,75.272865 
z"/>
<path fill="#54B8CF" opacity="1.000000" stroke="none" 
	d="
M211.987808,72.981705 
	C212.128296,72.673477 212.295258,72.386627 212.726883,72.045120 
	C212.991547,71.990479 213.028137,72.028236 212.895233,72.220451 
	C212.563980,72.656143 212.334000,72.864754 212.072388,73.038490 
	C212.072388,73.038490 212.014282,73.003067 211.987808,72.981705 
z"/>
<path fill="#54B8CF" opacity="1.000000" stroke="none" 
	d="
M212.973770,71.971115 
	C213.125320,71.668724 213.294647,71.385704 213.708191,71.029465 
	C213.952408,70.956238 213.999023,71.008179 213.875427,71.222816 
	C213.540649,71.671204 213.299423,71.868126 213.028137,72.028236 
	C213.028137,72.028236 212.991547,71.990479 212.973770,71.971115 
z"/>
<path fill="#54B8CF" opacity="1.000000" stroke="none" 
	d="
M217.760101,67.015480 
	C218.009445,67.116028 218.005508,67.293045 217.776962,67.760620 
	C217.552368,68.051186 217.117264,68.116798 217.117264,68.116798 
	C217.117264,68.116798 217.037445,68.036743 216.997925,67.996300 
	C217.141220,67.667892 217.324020,67.379921 217.760101,67.015480 
z"/>
<path fill="#60ACC0" opacity="1.000000" stroke="none" 
	d="
M27.727850,40.014404 
	C27.771780,40.187840 27.562801,40.449501 27.144424,40.852806 
	C27.115000,40.697178 27.294970,40.399906 27.727850,40.014404 
z"/>
<path fill="#6DD0CA" opacity="1.000000" stroke="none" 
	d="
M212.289124,151.980927 
	C212.208237,151.776062 212.418396,151.529724 212.866516,151.175003 
	C212.889694,151.323456 212.714935,151.614395 212.289124,151.980927 
z"/>
<path fill="#84C1C1" opacity="1.000000" stroke="none" 
	d="
M112.970802,159.276215 
	C113.155624,159.235001 113.422142,159.462860 113.832947,159.912888 
	C113.668983,159.938477 113.360741,159.741867 112.970802,159.276215 
z"/>
<path fill="#84C1C1" opacity="1.000000" stroke="none" 
	d="
M112.747643,157.998505 
	C113.013176,158.177704 113.005730,158.358917 112.971954,158.812012 
	C112.650894,158.908295 112.356163,158.732712 111.995880,158.299866 
	C112.111771,158.028580 112.293213,158.014542 112.747643,157.998505 
z"/>
<path fill="#84C1C1" opacity="1.000000" stroke="none" 
	d="
M110.996384,157.266541 
	C111.181892,157.219177 111.448341,157.437027 111.856705,157.872375 
	C111.691528,157.903839 111.384430,157.717773 110.996384,157.266541 
z"/>
<path fill="#84C1C1" opacity="1.000000" stroke="none" 
	d="
M110.003967,156.260971 
	C110.182472,156.218307 110.447929,156.436310 110.856934,156.870193 
	C110.697289,156.897934 110.394096,156.709793 110.003967,156.260971 
z"/>
<path fill="#84C1C1" opacity="1.000000" stroke="none" 
	d="
M108.995605,155.265167 
	C109.177361,155.218719 109.443893,155.435684 109.855927,155.867310 
	C109.694412,155.897507 109.387398,155.713028 108.995605,155.265167 
z"/>
<path fill="#6DD0CA" opacity="1.000000" stroke="none" 
	d="
M209.285904,154.985397 
	C209.207352,154.781754 209.417587,154.537659 209.864899,154.189468 
	C209.887024,154.338120 209.711258,154.624649 209.285904,154.985397 
z"/>
<path fill="#84C1C1" opacity="1.000000" stroke="none" 
	d="
M107.991547,154.264252 
	C108.171783,154.219940 108.439392,154.439117 108.853790,154.874176 
	C108.693359,154.902603 108.386139,154.715164 107.991547,154.264252 
z"/>
<path fill="#84C1C1" opacity="1.000000" stroke="none" 
	d="
M106.978149,153.274170 
	C107.170471,153.221420 107.439873,153.440186 107.854179,153.877304 
	C107.684464,153.912338 107.369858,153.729019 106.978149,153.274170 
z"/>
<path fill="#6DD0CA" opacity="1.000000" stroke="none" 
	d="
M211.302414,152.979004 
	C211.217316,152.775452 211.421188,152.529846 211.863007,152.177643 
	C211.888306,152.324173 211.718445,152.612808 211.302414,152.979004 
z"/>
<path fill="#84C1C1" opacity="1.000000" stroke="none" 
	d="
M105.986252,152.271683 
	C106.177513,152.221436 106.444878,152.441635 106.855331,152.880539 
	C106.686394,152.913544 106.374374,152.727844 105.986252,152.271683 
z"/>
<path fill="#81C8C0" opacity="1.000000" stroke="none" 
	d="
M116.990204,163.272034 
	C117.172356,163.229095 117.438690,163.450546 117.847565,163.890625 
	C117.684868,163.918289 117.379639,163.727356 116.990204,163.272034 
z"/>
<path fill="#84C1C1" opacity="1.000000" stroke="none" 
	d="
M104.984665,151.270920 
	C105.173882,151.219864 105.442688,151.437515 105.855667,151.872772 
	C105.687988,151.906784 105.376122,151.723206 104.984665,151.270920 
z"/>
<path fill="#84C1C1" opacity="1.000000" stroke="none" 
	d="
M103.987381,150.269852 
	C104.175026,150.221161 104.442535,150.440826 104.854965,150.877716 
	C104.689011,150.909378 104.378128,150.723785 103.987381,150.269852 
z"/>
<path fill="#84C1C1" opacity="1.000000" stroke="none" 
	d="
M102.990845,149.270050 
	C103.179184,149.220978 103.445351,149.440231 103.855583,149.876297 
	C103.689323,149.908188 103.378998,149.723267 102.990845,149.270050 
z"/>
<path fill="#6DD0CA" opacity="1.000000" stroke="none" 
	d="
M215.290985,148.997070 
	C215.204498,148.786453 215.414459,148.537125 215.863998,148.178253 
	C215.890915,148.331085 215.718857,148.627640 215.290985,148.997070 
z"/>
<path fill="#84C1C1" opacity="1.000000" stroke="none" 
	d="
M102.013672,148.259155 
	C102.191162,148.219299 102.453232,148.439606 102.857849,148.875443 
	C102.699692,148.900421 102.398972,148.709869 102.013672,148.259155 
z"/>
<path fill="#6DD0CA" opacity="1.000000" stroke="none" 
	d="
M216.290894,147.978058 
	C216.033752,147.883911 216.021881,147.708420 216.004288,147.269470 
	C216.173203,147.006241 216.347855,147.006424 216.784271,147.020325 
	C216.876114,147.321594 216.706146,147.609161 216.290894,147.978058 
z"/>
<path fill="#84C1C1" opacity="1.000000" stroke="none" 
	d="
M100.996475,147.264862 
	C101.178032,147.216415 101.444252,147.430450 101.856354,147.856995 
	C101.695213,147.888779 101.388184,147.708069 100.996475,147.264862 
z"/>
<path fill="#6DD0CA" opacity="1.000000" stroke="none" 
	d="
M217.275818,146.972900 
	C217.195892,146.771881 217.402863,146.526871 217.841141,146.169998 
	C217.865234,146.316849 217.695328,146.607117 217.275818,146.972900 
z"/>
<path fill="#84C1C1" opacity="1.000000" stroke="none" 
	d="
M95.993248,142.266418 
	C96.177521,142.220840 96.445374,142.440369 96.855759,142.879242 
	C96.691132,142.909561 96.383980,142.720551 95.993248,142.266418 
z"/>
<path fill="#5EC3CE" opacity="1.000000" stroke="none" 
	d="
M165.002014,122.002144 
	C164.909958,122.299629 164.815918,122.595009 164.721863,122.890388 
	C164.726791,122.666481 164.731720,122.442566 164.866501,122.108231 
	C164.996353,121.997795 165.000000,122.000038 165.002014,122.002144 
z"/>
<path fill="#50B4CF" opacity="1.000000" stroke="none" 
	d="
M217.057709,68.456650 
	C217.117264,68.116798 217.552368,68.051186 217.770966,68.026154 
	C223.681320,70.474228 229.000198,68.811623 233.646286,65.693283 
	C239.033783,62.077328 248.178574,62.505039 252.660294,67.216843 
	C253.382523,67.976158 254.622482,68.613892 255.647934,68.652740 
	C261.563843,68.876839 267.496460,69.135445 273.404083,68.899101 
	C276.298676,68.783295 279.717682,68.390121 281.902954,66.774651 
	C286.185181,63.609077 289.003906,64.709335 291.895416,68.690643 
	C289.433075,71.470253 286.867859,73.931572 283.958069,76.836601 
	C283.372345,77.488609 283.168671,77.728683 283.002441,78.000542 
	C283.002441,78.000542 282.993042,78.496338 282.986938,78.744110 
	C276.291687,75.508087 270.698669,77.982712 265.173523,81.945930 
	C264.311157,82.564514 262.297791,81.625397 260.829193,81.341660 
	C258.214600,80.836494 255.631531,80.024529 252.996109,79.799500 
	C246.906448,79.279518 240.796936,78.910049 234.688126,78.733650 
	C231.966721,78.655060 229.200226,79.027710 226.503204,79.484703 
	C222.790451,80.113808 219.149002,81.262146 215.421448,81.640419 
	C214.416748,81.742386 212.710754,80.061287 212.227341,78.841660 
	C211.656143,77.400589 212.061493,75.572441 212.057953,73.475296 
	C212.334000,72.864754 212.563980,72.656143 212.895233,72.220451 
	C213.299423,71.868126 213.540649,71.671204 213.894836,71.251808 
	C215.024628,70.309608 216.011398,69.553055 217.057709,68.456650 
M223.528061,70.501900 
	C223.528061,70.501900 223.486572,70.517792 223.528061,70.501900 
z"/>
<path fill="#62C8CC" opacity="1.000000" stroke="none" 
	d="
M164.993988,120.991119 
	C164.987885,120.982834 165.158447,120.743622 165.158447,120.743622 
	C165.158447,120.743622 165.151138,120.930664 165.083801,120.971077 
	C165.016464,121.011490 165.000076,120.999405 164.993988,120.991119 
z"/>
<path fill="#7CD9C6" opacity="1.000000" stroke="none" 
	d="
M293.583405,210.001678 
	C293.996246,218.687241 293.998627,227.373856 293.999268,236.528824 
	C291.652435,239.075287 289.356354,241.212723 286.942291,243.207352 
	C285.669159,244.259308 284.256104,245.715866 282.792664,245.863419 
	C276.717224,246.475983 270.600494,246.701935 264.494995,246.984848 
	C260.792938,247.156372 257.624908,247.275238 254.068451,249.890839 
	C251.253998,251.960724 245.846466,250.697021 241.619003,250.441467 
	C241.000702,250.404099 240.105255,247.749146 240.079895,246.292450 
	C239.932846,237.841553 240.007919,229.386765 240.012115,220.463989 
	C240.964478,219.398804 241.841125,218.579681 242.874115,218.248932 
	C245.957809,217.261551 249.318527,215.316498 252.175430,215.852814 
	C256.970612,216.752991 260.782715,215.608749 264.948639,213.725250 
	C267.265259,212.677872 270.531464,212.013229 272.752228,212.838226 
	C277.028778,214.426895 280.652924,214.043823 284.651459,212.279953 
	C287.309540,211.107361 290.320129,210.733917 293.583405,210.001678 
z"/>
<path fill="#72CFC6" opacity="1.000000" stroke="none" 
	d="
M294.507690,170.961243 
	C294.579529,176.362991 294.293610,181.749374 293.998718,187.567108 
	C287.039581,191.864258 279.725250,193.179855 271.905640,191.267700 
	C270.798920,190.997055 269.580872,190.967834 268.440308,191.083405 
	C259.244568,192.015213 250.055038,193.008499 240.438370,193.990585 
	C239.678482,188.300278 239.343826,182.602371 239.019409,176.451569 
	C241.980881,176.331680 244.966461,177.096100 247.872833,176.864914 
	C250.316498,176.670547 252.664215,175.306274 255.061325,174.479965 
	C257.493286,173.641647 259.922333,172.172333 262.372620,172.129745 
	C268.969421,172.015060 275.575623,172.619720 282.180969,172.697113 
	C283.908356,172.717361 285.622711,171.692673 287.384979,171.439713 
	C289.617584,171.119263 291.892975,171.096832 294.507690,170.961243 
z"/>
<path fill="#4BAECF" opacity="1.000000" stroke="none" 
	d="
M29.080685,71.775238 
	C27.352978,70.252014 25.750107,68.463249 24.088306,66.345253 
	C28.116047,65.622437 28.618601,68.605812 29.080685,71.775238 
z"/>
<path fill="#3E9FA3" opacity="1.000000" stroke="none" 
	d="
M240.315338,167.812378 
	C240.461151,162.128586 240.900360,156.296341 241.649979,150.231171 
	C246.614105,148.652206 250.734955,150.123016 254.856812,152.717163 
	C254.445297,153.843689 253.878723,154.661438 253.174637,155.744415 
	C248.894333,159.894409 244.751526,163.779160 240.315338,167.812378 
z"/>
<path fill="#78D4C7" opacity="1.000000" stroke="none" 
	d="
M24.265865,194.227402 
	C24.013908,192.284790 24.012793,190.567093 24.021198,188.419785 
	C31.489201,185.811066 38.260303,189.846390 45.423687,190.363190 
	C53.102730,190.917191 60.813244,191.283737 68.432907,192.306564 
	C72.211563,192.813782 77.046387,192.681534 77.977844,198.622375 
	C76.673927,201.974609 74.644302,203.452179 71.255760,202.329666 
	C70.495178,202.077698 69.520554,201.913071 68.805695,202.165253 
	C56.969444,206.340805 44.719547,200.642288 32.820873,203.647232 
	C32.111309,203.826416 30.830902,202.839981 30.210510,202.075790 
	C28.213123,199.615372 26.400547,197.004913 24.265865,194.227402 
z"/>
<path fill="#5BC1CE" opacity="1.000000" stroke="none" 
	d="
M71.061462,112.335800 
	C71.518486,110.178993 71.794037,108.214302 72.741379,106.658745 
	C72.954628,106.308601 75.512291,107.386223 77.514778,107.955582 
	C81.229294,102.784149 87.677071,104.093819 93.376083,102.981728 
	C95.781952,102.512253 98.348045,102.227806 100.487289,101.153984 
	C105.719292,98.527725 110.977112,96.998596 116.804604,98.686424 
	C117.272873,98.822044 117.933548,99.006310 118.264877,98.793823 
	C122.590378,96.019913 126.383850,98.355934 130.632812,99.978836 
	C136.216232,105.199791 141.425995,110.399422 147.679199,116.640472 
	C143.344086,116.640472 140.482529,116.724121 137.627304,116.624985 
	C128.596222,116.311432 119.587227,119.022049 110.479042,116.337151 
	C107.830566,115.556427 104.556183,116.530022 101.646103,117.096825 
	C97.795074,117.846878 94.211372,118.313393 90.685539,115.749161 
	C89.942917,115.209076 87.452995,116.000092 86.560524,116.934525 
	C83.659584,119.971848 81.146988,121.504944 78.239807,117.022774 
	C77.788338,116.326729 76.326675,115.492348 75.845612,115.735931 
	C72.329453,117.516373 71.947990,114.819878 71.061462,112.335800 
z"/>
<path fill="#6AC8C9" opacity="1.000000" stroke="none" 
	d="
M24.434879,154.999115 
	C24.042112,150.635971 24.036737,146.280930 24.048244,141.460907 
	C30.203341,141.381668 36.338631,141.948380 42.481468,142.047531 
	C44.430187,142.078995 46.399029,140.864029 48.685837,140.106079 
	C50.392689,140.971161 51.772373,141.949615 53.448372,143.041107 
	C57.746632,147.549194 61.748581,151.944229 65.931725,156.615570 
	C65.721130,158.722061 65.329338,160.552231 64.833145,162.870102 
	C56.003963,161.849854 47.061615,161.169907 38.262947,159.655304 
	C33.652634,158.861679 29.294365,156.603836 24.434879,154.999115 
z"/>
<path fill="#54B8CF" opacity="1.000000" stroke="none" 
	d="
M283.192810,77.859589 
	C283.168671,77.728683 283.372345,77.488609 283.803894,77.139465 
	C283.827759,77.270180 283.624054,77.510185 283.192810,77.859589 
z"/>
<path fill="#3994A3" opacity="1.000000" stroke="none" 
	d="
M250.507385,142.509995 
	C250.486557,142.517975 250.528229,142.502014 250.507385,142.509995 
z"/>
<path fill="#4CB2CF" opacity="1.000000" stroke="none" 
	d="
M223.507324,70.509842 
	C223.486572,70.517792 223.528061,70.501900 223.507324,70.509842 
z"/>
</svg>